<svg xmlns="http://www.w3.org/2000/svg" viewBox="0 0 500 500"><defs><style>.cls-1{fill:#222437;}.cls-2{fill:#e0e0e0;}.cls-3{fill:#845cdf;}.cls-4{fill:#263238;}.cls-5{fill:#455a64;}.cls-6{fill:#fafafa;}.cls-7{opacity:0.8;}.cls-8{fill:#fff;}.cls-9{fill:#ebebeb;}.cls-10{opacity:0.2;}.cls-11{fill:#ffbf9d;}.cls-12{fill:#ff9a6c;}.cls-13{opacity:0.4;}.cls-14{opacity:0.5;}.cls-15{opacity:0.3;}</style></defs><title>Partager</title><g id="Background"><rect class="cls-1" width="500" height="500"/></g><g id="Character"><path class="cls-2" d="M174,127.31V383.88H473.51V127.31ZM316.82,370.6H186.4v-232H316.82Zm142.87,0H329.26v-232H459.69Z"/><path class="cls-2" d="M405.32,202.86c.11.11-14.16,14.56-31.88,32.27s-32.16,32-32.27,31.88,14.16-14.56,31.88-32.27S405.21,202.75,405.32,202.86Z"/><path class="cls-2" d="M428.06,165.27c.11.11-14.84,15.24-33.38,33.78s-33.68,33.5-33.79,33.39,14.84-15.23,33.39-33.78S428,165.16,428.06,165.27Z"/><path class="cls-2" d="M264.29,244.56c.11.11-14.16,14.56-31.87,32.27s-32.17,32-32.28,31.88S214.3,294.15,232,276.43,264.18,244.45,264.29,244.56Z"/><path class="cls-2" d="M287,207c.11.11-14.84,15.24-33.38,33.78s-33.68,33.5-33.78,33.39,14.83-15.23,33.38-33.79S286.92,206.86,287,207Z"/><path class="cls-3" d="M223.91,310.63c-8-12.19-6.81-29.61,2.71-40.63,3-3.42,7.09-6.4,11.59-6s8.33,4.35,9.73,8.76.92,9.19.1,13.74c-1.16,6.38-3.09,12.91-7.52,17.64s-10.92,9.61-16.61,6.5"/><path class="cls-3" d="M228.32,369.31a18.23,18.23,0,0,1,5.08-20.69c1.83-1.5,4.23-2.65,6.51-2.05s3.9,3,4.22,5.4a15,15,0,0,1-1.19,7.09c-1.18,3.18-2.76,6.37-5.47,8.41s-6.5,3.95-9.15,1.84"/><path class="cls-3" d="M209.1,365.12a26.37,26.37,0,0,0-13.29-27.82c-3-1.58-6.77-2.51-9.83-1s-4.64,5.39-4.39,8.89,1.92,6.72,3.78,9.69c2.6,4.17,5.79,8.21,10.22,10.31s10.38,3.69,13.51-.09"/><path class="cls-3" d="M210.48,335.9c3.82-12.32-2.65-27.25-13.44-34.31-3.34-2.2-7.58-3.72-11.32-2.3s-6,5.73-6.15,9.83,1.46,8,3.27,11.72c2.53,5.14,5.76,10.23,10.68,13.18s12.88,5.91,17,1.88"/><path class="cls-4" d="M218.14,396.09a3.5,3.5,0,0,1-.12-.6c-.07-.45-.15-1-.26-1.72,0-.38-.11-.79-.17-1.24s-.18-.94-.28-1.46c-.2-1.05-.41-2.25-.75-3.56-.16-.65-.33-1.34-.5-2.05s-.42-1.44-.64-2.2c-.41-1.52-1-3.1-1.59-4.79a83.73,83.73,0,0,0-10.91-20.33c-1.09-1.41-2.07-2.78-3.12-4l-1.47-1.75-1.44-1.55c-.9-1-1.78-1.85-2.55-2.59l-1.06-1-.94-.83-1.29-1.16a3.33,3.33,0,0,1-.43-.43,2.15,2.15,0,0,1,.5.35l1.35,1.09,1,.8,1.09,1c.79.73,1.7,1.55,2.62,2.54l1.47,1.54,1.5,1.74c1.07,1.18,2.07,2.56,3.18,4a91.71,91.71,0,0,1,6.23,9.83,88.17,88.17,0,0,1,4.74,10.63c.56,1.69,1.16,3.29,1.55,4.83.22.77.42,1.51.62,2.22s.32,1.41.47,2.07c.32,1.32.5,2.53.68,3.59.08.52.16,1,.24,1.48s.09.86.13,1.25c.06.7.11,1.28.15,1.73A2,2,0,0,1,218.14,396.09Z"/><path class="cls-4" d="M217.86,398.3a.78.78,0,0,1,0-.25c0-.19,0-.42.06-.71.06-.67.14-1.58.25-2.73.06-.6.12-1.26.19-2s.08-1.51.12-2.36c.06-1.69.23-3.61.17-5.74,0-1.07,0-2.19,0-3.35s-.12-2.37-.18-3.62c-.08-2.5-.42-5.16-.73-8A125.54,125.54,0,0,0,214,351.69a125.1,125.1,0,0,0-6.6-17.07c-1.27-2.51-2.44-4.93-3.73-7.07-.63-1.08-1.2-2.16-1.82-3.14s-1.24-1.91-1.81-2.81c-1.11-1.82-2.3-3.34-3.27-4.73-.5-.68-.95-1.33-1.39-1.91l-1.24-1.55c-.72-.91-1.28-1.63-1.7-2.15l-.43-.57a1,1,0,0,1-.14-.21.86.86,0,0,1,.18.17c.12.15.28.32.47.54l1.78,2.09,1.28,1.53c.45.57.91,1.21,1.42,1.89,1,1.37,2.21,2.88,3.35,4.7l1.84,2.8c.63,1,1.21,2.05,1.85,3.13,1.32,2.15,2.5,4.56,3.79,7.08a120.84,120.84,0,0,1,6.67,17.14,122,122,0,0,1,3.75,18c.29,2.81.62,5.48.68,8,.05,1.25.15,2.47.15,3.63s0,2.29,0,3.36c0,2.14-.16,4.07-.25,5.76-.06.85-.09,1.64-.16,2.36s-.17,1.38-.24,2c-.15,1.15-.26,2.06-.35,2.72,0,.29-.08.52-.1.71A.81.81,0,0,1,217.86,398.3Z"/><path class="cls-4" d="M238.61,278.71s0,.08-.1.23l-.34.64L236.8,282c-.29.53-.64,1.1-1,1.76l-1.06,2.14-1.23,2.46c-.42.88-.81,1.83-1.25,2.82s-.91,2-1.35,3.12-.87,2.24-1.32,3.43c-.23.59-.46,1.2-.7,1.81l-.64,1.89c-.43,1.29-.88,2.61-1.33,4-1.69,5.47-3.29,11.55-4.65,18s-2.22,12.7-2.9,18.38-1,10.82-1.13,15.15c-.11,2.16-.13,4.12-.14,5.84s0,3.2,0,4.41,0,2.1,0,2.78v.73a.72.72,0,0,1,0,.25,1.53,1.53,0,0,1,0-.25c0-.19,0-.43-.05-.72,0-.68-.08-1.61-.14-2.79s-.09-2.69-.09-4.41,0-3.69.06-5.85c.07-4.34.46-9.49,1-15.2s1.56-11.94,2.87-18.43,3-12.57,4.7-18c.46-1.36.92-2.68,1.36-4l.65-1.89.71-1.82,1.36-3.43c.45-1.09.94-2.12,1.38-3.11s.86-1.93,1.29-2.81.87-1.69,1.27-2.45l1.1-2.13c.36-.65.72-1.22,1-1.74.61-1,1.09-1.81,1.45-2.39.15-.25.28-.45.39-.61A1.16,1.16,0,0,1,238.61,278.71Z"/><path class="cls-4" d="M235.9,353.51a10.61,10.61,0,0,1-.84,1.49c-.59.93-1.39,2.31-2.32,4s-2,3.82-3,6.2a82.12,82.12,0,0,0-2.93,7.91,84.27,84.27,0,0,0-2,8.18c-.47,2.55-.81,4.87-1,6.82s-.31,3.54-.36,4.64a9.49,9.49,0,0,1-.14,1.71,12.92,12.92,0,0,1-.06-1.72c0-1.1,0-2.69.19-4.66s.45-4.3.9-6.88a70.77,70.77,0,0,1,5-16.19,69.16,69.16,0,0,1,3.13-6.19c1-1.71,1.84-3.06,2.48-4A10.25,10.25,0,0,1,235.9,353.51Z"/><polygon class="cls-5" points="202.49 390.6 237.5 390.6 233.27 426.36 206.85 426.36 202.49 390.6"/><polygon class="cls-4" points="203.77 422.5 206.74 426.36 233.27 426.36 236.32 422.62 203.77 422.5"/><path class="cls-6" d="M236.14,401.12c0,.14-7.27.26-16.23.26s-16.23-.12-16.23-.26,7.27-.26,16.23-.26S236.14,401,236.14,401.12Z"/><path class="cls-6" d="M236.14,403.5c0,.14-7.27.26-16.23.26s-16.23-.12-16.23-.26,7.27-.26,16.23-.26S236.14,403.35,236.14,403.5Z"/><path class="cls-6" d="M235.7,405.8c0,.15-7,.26-15.66.26s-15.66-.11-15.66-.26,7-.26,15.66-.26S235.7,405.66,235.7,405.8Z"/><path class="cls-3" d="M147.71,214c-20.76,2.44-47.65,1.46-58.5-6.74s-17.09-22.55-14.78-36,13.57-25.15,27-27c8.21-1.11,16.94,1.14,24.63-2s12.43-10.79,19-15.82c14.49-11,37.45-6.5,48.38,8.12S206,173,195.34,187.79s-22,23.76-47.63,26.21"/><g class="cls-7"><path class="cls-8" d="M147.71,214c-20.76,2.44-47.65,1.46-58.5-6.74s-17.09-22.55-14.78-36,13.57-25.15,27-27c8.21-1.11,16.94,1.14,24.63-2s12.43-10.79,19-15.82c14.49-11,37.45-6.5,48.38,8.12S206,173,195.34,187.79s-22,23.76-47.63,26.21"/></g><circle class="cls-3" cx="113.4" cy="120.45" r="9.54" transform="translate(-51.92 126.62) rotate(-48.86)"/><g class="cls-7"><circle class="cls-8" cx="113.4" cy="120.45" r="9.54" transform="translate(-51.92 126.62) rotate(-48.86)"/></g><path class="cls-3" d="M191.57,187.65c1.73-5.55-.91-15.77-5.5-19.35a14.78,14.78,0,0,0-16.37-1c0-12.14-10-23.49-22-25.05S123.12,149.16,120,160.9a20.11,20.11,0,0,0-25.12,26.75Z"/><polygon class="cls-8" points="148.94 166.43 144.73 161.87 140.52 157.31 136.31 161.87 132.1 166.43 136.82 166.43 136.82 180.03 144.22 180.03 144.22 166.43 148.94 166.43"/><path class="cls-4" d="M148.93,166.43s-.37,0-1.17,0-2,.07-3.54.09l.14-.14c0,3.27.06,8,.1,13.6v.25h-.24l-7.4,0h-.27V180c0-2.74,0-5.68,0-8.71,0-1.66,0-3.29,0-4.89l.27.28h-5.33l.42-.45,8.45-9.08.16-.17.16.17c2.56,2.82,4.65,5.11,6.1,6.78l1.63,1.86c.36.42.54.63.52.62l-.64-.65L146.55,164c-1.46-1.49-3.57-3.75-6.19-6.54h.32l-8.38,9.15-.19-.45h5V180l-.28-.27,7.4,0L144,180c0-5.63.08-10.33.1-13.6v-.14h.14c1.46,0,2.61.07,3.43.09l.94,0Z"/><rect class="cls-8" x="175.01" y="105.65" width="52.01" height="38.01" transform="translate(15.16 270.96) rotate(-70.01)"/><path class="cls-4" d="M210,155.59a2.09,2.09,0,0,1,.08-.25q.09-.24.24-.69l.95-2.68c.84-2.34,2.07-5.75,3.61-10.06l12.74-35.26.1.22L192,93.9h0l.25-.12c-6.66,18.26-12.81,35.15-17.81,48.87l-.1-.2L200.23,152l7.21,2.66,1.89.71.66.26-.64-.22-1.88-.66-7.2-2.58-26.05-9.39-.15-.05.06-.15,17.74-48.89.06-.17.18.06h0l35.71,13,.16.06-.06.16L215,142.08c-1.57,4.28-2.82,7.66-3.68,10-.42,1.14-.75,2-1,2.63-.1.29-.19.51-.25.67Z"/><path class="cls-4" d="M210.32,111.49c0,.1-3.95-1.24-8.74-3s-8.65-3.24-8.62-3.34,3.95,1.24,8.75,3S210.36,111.39,210.32,111.49Z"/><path class="cls-4" d="M218.16,119.15c0,.1-6-2-13.43-4.69s-13.35-4.94-13.31-5,6.05,2,13.44,4.69S218.2,119.05,218.16,119.15Z"/><path class="cls-4" d="M216.55,123.58c0,.1-6.05-2-13.44-4.68s-13.34-5-13.3-5.05,6.05,2,13.43,4.69S216.59,123.48,216.55,123.58Z"/><path class="cls-4" d="M214.94,128c0,.1-6.05-2-13.44-4.68s-13.34-5-13.31-5,6.06,2,13.44,4.69S215,127.91,214.94,128Z"/><path class="cls-4" d="M213.33,132.44c0,.1-6.05-2-13.44-4.68s-13.34-5-13.31-5.05,6,2,13.44,4.69S213.36,132.34,213.33,132.44Z"/><path class="cls-4" d="M211.72,136.87c0,.1-6.06-2-13.44-4.68s-13.34-5-13.31-5,6.05,2,13.44,4.68S211.75,136.77,211.72,136.87Z"/><path class="cls-4" d="M210.1,141.3c0,.1-6-2-13.43-4.68s-13.35-5-13.31-5,6,2,13.44,4.68S210.14,141.21,210.1,141.3Z"/><path class="cls-4" d="M196.12,141.24c0,.09-3.28-1-7.25-2.44a75,75,0,0,1-7.12-2.79c0-.1,3.28,1,7.25,2.43S196.16,141.14,196.12,141.24Z"/><circle class="cls-3" cx="208.22" cy="150.75" r="7.72" transform="translate(18.53 324.24) rotate(-78.35)"/><path class="cls-2" d="M213.4,149.47c.2.4-2,1.91-4.84,3.37-.46.24-.91.46-1.34.65l-.68.32-.35-.6c-1.25-2.18-2-3.9-1.64-4.11s1.57,1.19,3,3.27l-1-.29c.41-.23.86-.46,1.32-.7C210.69,149.92,213.19,149.07,213.4,149.47Z"/><rect class="cls-9" x="42.79" y="140.07" width="32.72" height="26.16" transform="matrix(0.97, -0.25, 0.25, 0.97, -36.67, 19.84)"/><path class="cls-4" d="M71.69,136.37l-.16,0-.44.12-1.72.46-6.47,1.71L40,144.7l.07-.11c2,7.54,4.21,16.17,6.59,25.31h0l-.11-.07,31.66-8.23,0,.1-4.74-18.37c-.57-2.21-1-4-1.32-5.14l-.34-1.35c-.08-.31-.11-.48-.11-.48l.12.46c.08.3.2.75.36,1.33l1.35,5.11c1.16,4.43,2.83,10.76,4.83,18.4l0,.07-.08,0L46.64,170l-.1,0,0-.09h0c-2.38-9.14-4.62-17.78-6.58-25.31l0-.09.08,0,22.93-5.92L69.4,137l1.7-.43.44-.11Z"/><rect class="cls-3" x="43.92" y="141.73" width="30.42" height="22.86" transform="translate(-36.67 19.83) rotate(-14.59)"/><polygon class="cls-3" points="47.29 168.05 53.99 151.62 62.6 158.57 65.72 152.84 76.73 160.39 47.29 168.05"/><path class="cls-3" d="M62.62,147.58a2.39,2.39,0,1,1-2.92-1.72A2.39,2.39,0,0,1,62.62,147.58Z"/><g class="cls-10"><polygon points="47.29 168.05 53.99 151.62 62.6 158.57 65.72 152.84 76.73 160.39 47.29 168.05"/></g><g class="cls-10"><path d="M62.62,147.58a2.39,2.39,0,1,1-2.92-1.72A2.39,2.39,0,0,1,62.62,147.58Z"/></g><rect class="cls-9" x="57.09" y="116.17" width="49.44" height="39.52" transform="matrix(1, -0.07, 0.07, 1, -9.36, 6.09)"/><path class="cls-4" d="M105.08,114.48l-.24,0-.69,0-2.68.21-10.09.74-35.6,2.58.11-.14c.84,11.73,1.79,25.19,2.8,39.42h0l-.15-.13,49.31-3.45-.11.13c-.81-11.88-1.48-21.72-1.95-28.6-.23-3.45-.41-6.15-.54-8,0-.91-.1-1.62-.13-2.11s0-.73,0-.73,0,.24.06.71.09,1.17.16,2.08c.14,1.84.34,4.54.6,8,.5,6.89,1.21,16.76,2.08,28.66V154h-.12l-49.31,3.5h-.15v-.15h0c-1-14.23-1.94-27.69-2.76-39.42v-.13h.13l35.69-2.45,10.07-.68,2.66-.17.68,0Z"/><rect class="cls-3" x="58.8" y="118.66" width="45.96" height="34.55" transform="translate(-9.36 6.09) rotate(-4.03)"/><polygon class="cls-3" points="60.07 154.78 74.58 132.23 85.44 144.94 91.66 137.3 105.92 151.55 60.07 154.78"/><path class="cls-3" d="M88.52,128.61a3.62,3.62,0,1,1-3.86-3.35A3.62,3.62,0,0,1,88.52,128.61Z"/><g class="cls-10"><polygon points="60.07 154.78 74.58 132.23 85.44 144.94 91.66 137.3 105.92 151.55 60.07 154.78"/></g><g class="cls-10"><path d="M88.52,128.61a3.62,3.62,0,1,1-3.86-3.35A3.62,3.62,0,0,1,88.52,128.61Z"/></g><path class="cls-3" d="M133.2,187.65a4.79,4.79,0,0,1,0,.5c0,.35,0,.83,0,1.46,0,1.31,0,3.22,0,5.66,0,4.95-.1,12.11-.18,21-.19,17.89-.47,42.85-.78,71.22v.27H111.56L14,287.69l.16-.16c0,7.19-.06,12.87-.08,16.79,0,1.92,0,3.41,0,4.44,0,.49,0,.87,0,1.15s0,.39,0,.39,0-.14,0-.39,0-.66,0-1.15c0-1,0-2.52,0-4.44,0-3.92,0-9.6-.08-16.79v-.17H14l97.54-.11H132l-.28.27c.39-28.36.73-53.33,1-71.22.15-8.92.26-16.08.34-21,.05-2.45.09-4.35.12-5.66,0-.63,0-1.11,0-1.46Z"/><path class="cls-3" d="M321,261.83s0-.33,0-1,0-1.61,0-2.85c0-2.51,0-6.17-.07-10.83,0-9.37-.05-22.76-.1-38.9l.24.23-67.45.05-100.39-.12H153v-.16c0-6.49.06-11.64.08-15.19,0-1.75,0-3.1,0-4,0-.44,0-.79,0-1a2.37,2.37,0,0,1,0-.35,1.35,1.35,0,0,1,0,.35c0,.25,0,.6,0,1,0,.94,0,2.29,0,4,0,3.55,0,8.7.08,15.19l-.16-.15L253.55,208,321,208h.23v.23c0,16.14-.08,29.53-.1,38.9,0,4.66-.05,8.32-.06,10.83,0,1.24,0,2.19,0,2.85S321,261.83,321,261.83Z"/><path class="cls-11" d="M409.07,307l-18,27.65L364.9,323.54,350,315.77l-18.19,2,25.69,15.83h0l25.07,23.55a15.43,15.43,0,0,0,25.18-2.46l20.38-36.23Z"/><path class="cls-11" d="M360.63,322.34a137.9,137.9,0,0,0-22.54-6c-.47.49.16,2.16.73,2.59a5.69,5.69,0,0,0,2.2,1,8.08,8.08,0,0,1,2.22.6,6.08,6.08,0,0,1,2.12,2.61c2,3.29,6.8,5.43,11.47,5.14"/><path class="cls-12" d="M356.83,328.3a1.31,1.31,0,0,1-.48.07,11.25,11.25,0,0,1-1.39,0,14.28,14.28,0,0,1-5-1.17,11.91,11.91,0,0,1-3-1.89,9.54,9.54,0,0,1-1.38-1.45c-.42-.56-.75-1.19-1.11-1.77a3.52,3.52,0,0,0-1.45-1.39,8.94,8.94,0,0,0-2.14-.53,5.89,5.89,0,0,1-2.23-1.06,2.85,2.85,0,0,1-.74-1.12,3,3,0,0,1-.23-1.33,1.08,1.08,0,0,1,.23-.53l.1-.11.15,0a110.42,110.42,0,0,1,16.06,4c2,.65,3.62,1.2,4.73,1.61a11,11,0,0,1,1.7.69,11.36,11.36,0,0,1-1.77-.48l-4.78-1.45a127.93,127.93,0,0,0-16-3.78l.25-.09a.46.46,0,0,0-.08.22,2.8,2.8,0,0,0,.75,1.94,5.36,5.36,0,0,0,2,1,9.43,9.43,0,0,1,2.26.59,3.9,3.9,0,0,1,1.65,1.59,10.64,10.64,0,0,0,5.25,5,15.4,15.4,0,0,0,4.84,1.31C356.16,328.29,356.83,328.25,356.83,328.3Z"/><path class="cls-3" d="M255.14,404.87l-23.87,12.37-3.91,4.47a6.58,6.58,0,0,1-9.28.64l-33.4-29.15s1.35-4.73,4.73-3.62,30,9.11,30,9.11L241.6,385Z"/><g class="cls-13"><path class="cls-8" d="M255.14,404.87l-23.87,12.37-3.91,4.47a6.58,6.58,0,0,1-9.28.64l-33.4-29.15s1.35-4.73,4.73-3.62,30,9.11,30,9.11L241.6,385Z"/></g><path class="cls-3" d="M287.05,404.2l-5.83,10.63v12.52H230.31s-2.09-4.45,1.18-5.84,28.57-12.83,28.57-12.83l10.56-15.62Z"/><g class="cls-13"><path class="cls-8" d="M287.05,404.2l-5.83,10.63v12.52H230.31s-2.09-4.45,1.18-5.84,28.57-12.83,28.57-12.83l10.56-15.62Z"/></g><path class="cls-3" d="M317.9,334s-13.8,1.08-18.73,4.32S232.43,386,232.43,386l15.24,24.13,42.63-20.2Z"/><g class="cls-14"><path d="M317.9,334s-13.8,1.08-18.73,4.32S232.43,386,232.43,386l15.24,24.13,42.63-20.2Z"/></g><path class="cls-3" d="M464.83,388.44s-5.25,23-6.6,26.55c-1.91,5-21.47,16.31-45.38,10.19-24.69-6.32-83.49-54.09-83.49-54.09l-5.88,4.33-36.77,34.14s-21.11-8.7-21.11-17.43c0,0,44.69-68.2,48.77-69.49s8.25-2.55,13.19-1.51,79.28,41.79,79.28,41.79h0Z"/><g class="cls-14"><path d="M464.83,388.44s-5.25,23-6.6,26.55c-1.91,5-21.47,16.31-45.38,10.19-24.69-6.32-83.49-54.09-83.49-54.09l-5.88,4.33-36.77,34.14s-21.11-8.7-21.11-17.43c0,0,44.69-68.2,48.77-69.49s8.25-2.55,13.19-1.51,79.28,41.79,79.28,41.79h0Z"/></g><path class="cls-4" d="M310.6,359.09a3.1,3.1,0,0,1,.24,1,11.78,11.78,0,0,0,.75,2.49l.38.78c.07.13.13.27.2.41l.27.39.56.82.71.79a13.78,13.78,0,0,0,3.78,2.78,23.86,23.86,0,0,0,8.27,2.34c2.21.24,3.6.16,3.6.25a3.17,3.17,0,0,1-1,.15,19.29,19.29,0,0,1-2.66,0,22,22,0,0,1-8.5-2.24,13.72,13.72,0,0,1-3.9-2.93q-.36-.44-.72-.84l-.56-.88-.27-.41c-.07-.15-.13-.3-.2-.44l-.36-.82a9.7,9.7,0,0,1-.59-2.61A3.07,3.07,0,0,1,310.6,359.09Z"/><path class="cls-4" d="M329.36,371.09s-.32-.14-.86-.48-1.28-.87-2.18-1.56a23.3,23.3,0,0,1-5.84-6.65,22.57,22.57,0,0,1-2.64-8.46c-.12-1.12-.18-2-.19-2.67a3.33,3.33,0,0,1,0-1c.09,0,.19,1.39.55,3.61a24.45,24.45,0,0,0,2.73,8.23,25.61,25.61,0,0,0,5.6,6.62C328.28,370.2,329.42,371,329.36,371.09Z"/><path class="cls-4" d="M286.71,409.56a2.09,2.09,0,0,1-.5-.16l-1.46-.55a50.47,50.47,0,0,1-5.36-2.43,41.46,41.46,0,0,1-7.6-5.05,28.85,28.85,0,0,1-4-4,18.2,18.2,0,0,1-3.16-5.39l0-.1.07-.1,14.44-21.35c8.5-12.47,16.37-23.64,22.22-31.61,2.93-4,5.33-7.18,7-9.37l2-2.52.52-.64c.11-.15.18-.22.19-.21a.9.9,0,0,1-.15.24l-.47.68c-.46.62-1.08,1.49-1.87,2.58l-6.87,9.48c-5.77,8-13.58,19.22-22.08,31.69l-14.49,21.3,0-.2a18,18,0,0,0,3.05,5.24,28.6,28.6,0,0,0,3.86,4,42.24,42.24,0,0,0,7.48,5.1,56.19,56.19,0,0,0,5.28,2.55l1.42.62A2.36,2.36,0,0,1,286.71,409.56Z"/><path class="cls-3" d="M258,404.43s-.32-.27-.81-.84-1.2-1.41-2-2.47a101.13,101.13,0,0,1-11.21-17.85c-.59-1.22-1-2.21-1.34-2.91a4.53,4.53,0,0,1-.4-1.1,4.59,4.59,0,0,1,.6,1c.41.77.91,1.71,1.49,2.82,1.27,2.37,3.08,5.62,5.26,9.1s4.33,6.52,5.91,8.69l1.9,2.57A5,5,0,0,1,258,404.43Z"/><path class="cls-3" d="M266.76,388a15,15,0,0,1-2-2.48,61.18,61.18,0,0,1-4.14-6.53,62.46,62.46,0,0,1-3.29-7,15.58,15.58,0,0,1-1-3,21.78,21.78,0,0,1,1.36,2.89c.81,1.8,2,4.25,3.42,6.88s2.89,4.93,4,6.58A22.26,22.26,0,0,1,266.76,388Z"/><path class="cls-3" d="M279.54,371.35a7.6,7.6,0,0,1-1.48-1.72,40.52,40.52,0,0,1-2.95-4.61,39.54,39.54,0,0,1-2.33-4.95,7.63,7.63,0,0,1-.67-2.17c.15-.06,1.43,3.15,3.49,6.85S279.67,371.25,279.54,371.35Z"/><path class="cls-3" d="M290.83,353.08s-.15.18-.48.48l-1.45,1.28c-1.27,1.11-3.13,2.68-5.44,4.6-4.63,3.85-11.12,9.05-18.45,14.58s-14.11,10.36-19.07,13.76c-2.49,1.7-4.51,3.05-5.92,4l-1.63,1.05a4,4,0,0,1-.59.33,3,3,0,0,1,.53-.43l1.57-1.13,5.81-4.12c4.9-3.48,11.64-8.34,19-13.87s13.84-10.68,18.53-14.44l5.55-4.47,1.52-1.2A3.64,3.64,0,0,1,290.83,353.08Z"/><path class="cls-3" d="M266,393.83a24.9,24.9,0,0,1-3.21,1.47c-2,.86-4.74,2.07-7.74,3.48s-5.67,2.78-7.61,3.77a24.23,24.23,0,0,1-3.17,1.55,19.18,19.18,0,0,1,3-1.89c1.88-1.09,4.54-2.51,7.55-3.93s5.79-2.58,7.83-3.35A19,19,0,0,1,266,393.83Z"/><path class="cls-3" d="M340.82,330a10,10,0,0,1-1.43-.82c-.9-.56-2.2-1.36-3.84-2.29a40.25,40.25,0,0,0-6-2.78,17.43,17.43,0,0,0-7.85-1.16,16.51,16.51,0,0,0-7.31,3.07,38.16,38.16,0,0,0-5,4.28c-1.33,1.33-2.37,2.45-3.1,3.22a10.58,10.58,0,0,1-1.16,1.17,9.08,9.08,0,0,1,1-1.31c.67-.82,1.67-2,3-3.36a35.66,35.66,0,0,1,5-4.42,16.7,16.7,0,0,1,7.54-3.21,17.55,17.55,0,0,1,8.09,1.23,37.36,37.36,0,0,1,6,2.93c1.63,1,2.91,1.83,3.77,2.45A8.82,8.82,0,0,1,340.82,330Z"/><path class="cls-3" d="M324.32,367.9a10.47,10.47,0,0,1-.53-1.77c-.32-1.15-.71-2.82-1.14-4.9a121.77,121.77,0,0,1-2.22-16.44,123.63,123.63,0,0,1,0-16.59c.16-2.12.33-3.83.49-5a11.56,11.56,0,0,1,.3-1.82,11.06,11.06,0,0,1-.08,1.84c-.1,1.18-.21,2.89-.31,5a144.64,144.64,0,0,0,.12,16.53,148.42,148.42,0,0,0,2,16.4c.39,2.08.72,3.76,1,4.92A11.46,11.46,0,0,1,324.32,367.9Z"/><path class="cls-4" d="M477.65,427.35c0,.15-67.72.28-151.23.28s-151.24-.13-151.24-.28,67.7-.28,151.24-.28S477.65,427.2,477.65,427.35Z"/><path class="cls-3" d="M293.85,401.25a4.41,4.41,0,0,1-1.11-.32c-.71-.24-1.71-.65-2.93-1.2a33,33,0,0,1-15.14-14,29.53,29.53,0,0,1-1.44-2.81,4.1,4.1,0,0,1-.41-1.09c.09,0,.8,1.45,2.19,3.7a36.19,36.19,0,0,0,15,13.79C292.35,400.57,293.89,401.16,293.85,401.25Z"/><path class="cls-3" d="M304.45,391.15a6.24,6.24,0,0,1-1.17-.45c-.74-.32-1.79-.84-3.06-1.53a51.44,51.44,0,0,1-16.74-14.91c-.84-1.18-1.47-2.16-1.87-2.86a5.85,5.85,0,0,1-.59-1.11c.09-.05,1,1.46,2.78,3.73a58.41,58.41,0,0,0,16.62,14.8C302.88,390.29,304.49,391.06,304.45,391.15Z"/><path class="cls-3" d="M316.7,381.15a7.05,7.05,0,0,1-1.34-.54c-.86-.37-2.06-1-3.53-1.77a57.7,57.7,0,0,1-10.65-7.5,69.9,69.9,0,0,1-8.78-9.62c-1-1.33-1.79-2.43-2.31-3.21a7.29,7.29,0,0,1-.76-1.23,6.9,6.9,0,0,1,.94,1.11l2.44,3.08a81.55,81.55,0,0,0,8.85,9.45A65.51,65.51,0,0,0,312,378.5c1.44.83,2.61,1.49,3.44,1.92A7.26,7.26,0,0,1,316.7,381.15Z"/><path class="cls-3" d="M306.34,333.6c.12,0,0,2.33.38,6,.11.93.23,1.94.46,3s.49,2.22.78,3.41a47.61,47.61,0,0,0,2.82,7.48,47.13,47.13,0,0,0,4.15,6.84c.76,1,1.45,1.92,2.2,2.72s1.42,1.57,2.08,2.23c2.66,2.61,4.59,3.92,4.52,4a9.35,9.35,0,0,1-1.37-.9,15.12,15.12,0,0,1-1.51-1.16c-.57-.49-1.25-1-1.91-1.68a30.27,30.27,0,0,1-2.16-2.2c-.77-.8-1.49-1.74-2.26-2.72a44.56,44.56,0,0,1-4.24-6.9,45,45,0,0,1-2.82-7.6c-.28-1.21-.58-2.36-.74-3.45s-.31-2.12-.4-3.06-.11-1.79-.14-2.53a16.89,16.89,0,0,1,0-1.92A8.62,8.62,0,0,1,306.34,333.6Z"/><path class="cls-3" d="M336.35,329.08a10.27,10.27,0,0,1-.8,1.47c-.27.46-.6,1-.94,1.7s-.79,1.42-1.18,2.3a55.81,55.81,0,0,0-2.54,6.2,53.78,53.78,0,0,0-2.83,16.1,54.18,54.18,0,0,0,.27,6.69c.06,1,.22,1.81.31,2.56s.21,1.4.32,1.92a10.71,10.71,0,0,1,.24,1.65,9,9,0,0,1-.46-1.6c-.13-.52-.28-1.16-.4-1.92s-.31-1.61-.41-2.56a49.54,49.54,0,0,1-.39-6.75,55.08,55.08,0,0,1,.77-8.25,54.23,54.23,0,0,1,2.1-8,48.45,48.45,0,0,1,2.67-6.21c.41-.87.87-1.61,1.25-2.27a17.83,17.83,0,0,1,1-1.66A8.65,8.65,0,0,1,336.35,329.08Z"/><path class="cls-3" d="M357.4,338.17a9.87,9.87,0,0,1-1.21,1.28c-.4.4-.89.88-1.43,1.48s-1.18,1.24-1.82,2a61.91,61.91,0,0,0-4.28,5.63,64.34,64.34,0,0,0-4.26,7.53,62.47,62.47,0,0,0-3.09,8.09,57,57,0,0,0-1.61,6.88c-.2,1-.29,1.9-.4,2.7s-.18,1.48-.23,2a10,10,0,0,1-.22,1.75,11.52,11.52,0,0,1,0-1.77c0-.56,0-1.26.14-2.06s.14-1.72.32-2.72a53.28,53.28,0,0,1,1.51-7,59.58,59.58,0,0,1,3.07-8.18,61.51,61.51,0,0,1,4.34-7.58,54.87,54.87,0,0,1,4.42-5.6c.66-.77,1.33-1.4,1.89-2s1.07-1,1.5-1.42A9.87,9.87,0,0,1,357.4,338.17Z"/><path class="cls-3" d="M376.76,349.37A12.31,12.31,0,0,1,376,351c-.53,1-1.33,2.48-2.34,4.28-2,3.59-4.91,8.5-8.27,13.82s-6.54,10.05-8.92,13.42c-1.18,1.68-2.16,3-2.85,4a11.51,11.51,0,0,1-1.12,1.4,11,11,0,0,1,.94-1.53c.69-1,1.6-2.41,2.71-4.06,2.28-3.42,5.42-8.17,8.77-13.49s6.29-10.18,8.4-13.72l2.49-4.19A9.85,9.85,0,0,1,376.76,349.37Z"/><path class="cls-3" d="M398.91,359.3a2.26,2.26,0,0,1-.21.46c-.18.35-.41.77-.68,1.27-.6,1.09-1.5,2.65-2.66,4.55-2.31,3.82-5.69,9-9.76,14.42s-8.08,10.15-11.08,13.44c-1.5,1.65-2.74,3-3.62,3.84l-1,1q-.36.34-.39.33a2.45,2.45,0,0,1,.31-.4l.94-1.08,3.48-4c2.92-3.35,6.86-8.08,10.93-13.51s7.48-10.54,9.87-14.29l2.81-4.46c.31-.48.56-.88.78-1.21S398.89,359.29,398.91,359.3Z"/><path class="cls-3" d="M418.05,372.66a1.58,1.58,0,0,1-.12.49c-.12.38-.26.83-.44,1.37s-.43,1.33-.76,2.15-.67,1.79-1.13,2.81a76.49,76.49,0,0,1-3.47,7.07,78.4,78.4,0,0,1-11.36,15.56c-2,2.15-4,4-5.67,5.46-.83.75-1.64,1.37-2.33,1.93s-1.3,1-1.82,1.38l-1.17.84a2.32,2.32,0,0,1-.43.26s.11-.14.36-.35l1.11-.92c.49-.39,1.08-.87,1.75-1.45s1.45-1.22,2.26-2c1.67-1.49,3.56-3.35,5.57-5.51a84.42,84.42,0,0,0,11.28-15.46c1.44-2.57,2.65-4.94,3.56-7,.48-1,.85-1.95,1.2-2.76s.63-1.53.85-2.11.39-1,.53-1.34S418,372.65,418.05,372.66Z"/><path class="cls-3" d="M434.76,390.73a8,8,0,0,1-.48,1.54c-.33,1-.89,2.39-1.64,4.09a71.22,71.22,0,0,1-16.92,23.44c-1.38,1.25-2.53,2.22-3.36,2.85a8.25,8.25,0,0,1-1.32.94,10,10,0,0,1,1.18-1.11c.78-.67,1.89-1.69,3.23-3a82.42,82.42,0,0,0,9.48-10.89,81.51,81.51,0,0,0,7.35-12.43c.79-1.67,1.41-3,1.8-4A11,11,0,0,1,434.76,390.73Z"/><path class="cls-3" d="M453.4,400.18a4.94,4.94,0,0,1-.24,1.11c-.19.72-.51,1.73-.94,3a61.67,61.67,0,0,1-9.93,17.9c-.83,1-1.53,1.83-2,2.37s-.79.82-.82.79,1-1.3,2.53-3.4a75.67,75.67,0,0,0,9.88-17.79C452.81,401.69,453.31,400.15,453.4,400.18Z"/><path class="cls-3" d="M312.73,365.06a2.32,2.32,0,0,1-.26.43l-.82,1.19c-.73,1-1.8,2.48-3.16,4.27-2.7,3.58-6.54,8.44-11,13.65s-8.61,9.79-11.71,13c-1.54,1.62-2.81,2.92-3.71,3.8l-1,1a1.93,1.93,0,0,1-.39.33s.09-.15.31-.41l1-1.07,3.57-3.92c3-3.31,7.15-7.92,11.57-13.12s8.31-10,11.09-13.53l3.29-4.16.91-1.12C312.59,365.17,312.71,365.05,312.73,365.06Z"/><path class="cls-3" d="M317.9,357.61c.06.15-1.51.9-3.24,2.12s-3,2.43-3.1,2.32a11.31,11.31,0,0,1,6.34-4.44Z"/><path class="cls-3" d="M431,426.19a1.11,1.11,0,0,1-.33-.07l-.95-.26c-.82-.25-2.06-.56-3.61-1.1a101.1,101.1,0,0,1-12.88-5.22,139.73,139.73,0,0,1-17.79-10.4c-6.41-4.37-13.18-9.57-20.2-15.12s-13.72-10.8-20.05-15.27a171.19,171.19,0,0,0-17.36-11,116.66,116.66,0,0,0-12.51-5.95c-1.5-.65-2.72-1-3.51-1.36l-.92-.36a1.31,1.31,0,0,1-.31-.14,1.25,1.25,0,0,1,.33.09l.93.3c.81.29,2,.65,3.56,1.26A106.81,106.81,0,0,1,338,367.4a164.62,164.62,0,0,1,17.47,10.93c6.35,4.46,13.08,9.71,20.1,15.25s13.76,10.75,20.14,15.13a145,145,0,0,0,17.67,10.48,111.36,111.36,0,0,0,12.78,5.37c1.53.57,2.76.91,3.57,1.19l.93.32Z"/><path class="cls-3" d="M455.84,417.17s-3.31-.66-9.16-2.36a159.31,159.31,0,0,1-24-9.39,251.72,251.72,0,0,1-32.88-19.59A440.29,440.29,0,0,1,352.84,357c-8-6.85-15.59-13.65-22.73-20l.08.05-4.73-2,.1,0a13.34,13.34,0,0,0-8.16,3.16,40.19,40.19,0,0,0-6.06,6.18c-3.57,4.44-7,8.67-10.21,12.68-6.43,8-12,15.18-16.53,21.22s-8,10.92-10.35,14.3l-2.68,3.87-.7,1a3.31,3.31,0,0,1-.25.33s.07-.13.22-.36l.65-1c.59-.9,1.45-2.23,2.61-3.93,2.31-3.41,5.74-8.33,10.23-14.39s10-13.26,16.44-21.31c3.22-4,6.62-8.26,10.18-12.71a40.73,40.73,0,0,1,6.13-6.27,13.8,13.8,0,0,1,8.48-3.28h.05l.05,0,4.73,1.94.05,0,0,0c7.15,6.37,14.76,13.16,22.74,20a449.44,449.44,0,0,0,36.85,28.86,255.07,255.07,0,0,0,32.76,19.65,166,166,0,0,0,23.92,9.55c2.92.86,5.19,1.52,6.75,1.91l1.76.47Z"/><path class="cls-3" d="M426.74,378.7a.67.67,0,0,1-.25,0h-.72c-.64,0-1.58,0-2.79-.12a54.17,54.17,0,0,1-10.11-1.73,74.22,74.22,0,0,1-14.21-5.46,117,117,0,0,1-15.87-9.77c-5.35-3.88-10.23-7.87-14.65-11.5s-8.39-6.91-11.8-9.57-6.21-4.75-8.19-6.15l-2.28-1.6-.58-.42-.19-.16a.85.85,0,0,1,.22.11l.62.38c.53.34,1.34.83,2.34,1.51,2,1.34,4.87,3.38,8.31,6s7.44,5.88,11.87,9.49,9.33,7.58,14.66,11.45a118.12,118.12,0,0,0,15.78,9.75A76.21,76.21,0,0,0,413,376.49a59.21,59.21,0,0,0,10,1.9c1.2.15,2.14.15,2.77.22l.72.05Z"/><path class="cls-4" d="M375.92,349.39h0a3.8,3.8,0,0,0-1.21-5.27l-44.56-27.39L322,261a3.16,3.16,0,0,0-3.2-2.71h0a3.16,3.16,0,0,0-3.07,3.58l7.8,58.61Z"/><path class="cls-3" d="M459.54,260.71c1.25,1.21,18.63,8,20.21,22.18.71,6.36-15.82,113.33-15.82,113.33l-1.94.56a28.67,28.67,0,0,1-30.89-10.2l-3.26-4.38a42,42,0,0,0-9.35-9.14L400.94,359.7,413.75,348l-1.25-13s-5.62-20-2.49-30,18.14-31,18.14-31l7.45-8.38Z"/><path class="cls-4" d="M461.76,385.25s-.25.25-.77.61a7.94,7.94,0,0,1-1,.61,13.31,13.31,0,0,1-1.37.7,18.85,18.85,0,0,1-3.79,1.27,20.6,20.6,0,0,1-9.75-.15,20.13,20.13,0,0,1-3.76-1.4,14.4,14.4,0,0,1-1.34-.74,7.77,7.77,0,0,1-1-.64c-.51-.39-.78-.61-.75-.64s1.19.75,3.23,1.66a21.63,21.63,0,0,0,3.71,1.26,21.84,21.84,0,0,0,9.52.15,21.87,21.87,0,0,0,3.75-1.13C460.55,386,461.71,385.16,461.76,385.25Z"/><path class="cls-4" d="M460.76,376.14a6.77,6.77,0,0,1-1.79,1.43,19.41,19.41,0,0,1-10.54,3,6.58,6.58,0,0,1-2.28-.26,36,36,0,0,0,7.61-1A35.33,35.33,0,0,0,460.76,376.14Z"/><path class="cls-3" d="M465.56,266.7s-17.48-4.19-21.85,12.57a285.7,285.7,0,0,1-11.62,33.9l40,8.41S485.18,277.17,465.56,266.7Z"/><path class="cls-4" d="M472.11,321.58a4.33,4.33,0,0,1-.8-.11L469,321l-8.47-1.7L432,313.44l-.32-.07.12-.3c.82-2.11,1.63-4.34,2.41-6.62,2.14-6.26,3.95-12.3,5.33-17.86.35-1.39.63-2.76,1-4.08s.8-2.57,1.25-3.77.91-2.35,1.38-3.44a17.24,17.24,0,0,1,1.53-3.07,15.9,15.9,0,0,1,4.19-4.14,18.32,18.32,0,0,1,3.92-2.09,10.38,10.38,0,0,1,2.72-.67,4.53,4.53,0,0,1,1,0s-.33,0-1,.12a11.43,11.43,0,0,0-2.66.77,18.46,18.46,0,0,0-3.82,2.13,16.14,16.14,0,0,0-4,4.11,17,17,0,0,0-1.47,3c-.45,1.09-.91,2.23-1.34,3.43s-.84,2.44-1.2,3.74-.63,2.67-1,4.07c-1.36,5.59-3.16,11.64-5.3,17.92-.79,2.29-1.6,4.53-2.42,6.64l-.2-.37L460.64,319l8.43,1.86,2.26.53A5.17,5.17,0,0,1,472.11,321.58Z"/><path class="cls-4" d="M427.05,332a4.62,4.62,0,0,1-1.84-.39,13.37,13.37,0,0,1-4-2.22,13.59,13.59,0,0,1-3-3.43,4.65,4.65,0,0,1-.75-1.72,24.44,24.44,0,0,0,4.09,4.71A24.72,24.72,0,0,0,427.05,332Z"/><path class="cls-4" d="M473.29,314.59a8.78,8.78,0,0,1,.27-1.5c.22-1,.49-2.35.79-4.08a77.68,77.68,0,0,0,1.13-13.62,78.82,78.82,0,0,0-1.33-13.6c-.32-1.72-.62-3.11-.85-4.07a7.84,7.84,0,0,1-.29-1.5,7.86,7.86,0,0,1,.5,1.45c.29.94.65,2.32,1,4a67.59,67.59,0,0,1,.2,27.37c-.35,1.73-.68,3.12-1,4.06A7.18,7.18,0,0,1,473.29,314.59Z"/><path class="cls-4" d="M419.24,254.66c1.53,4.42-1.15,9.13-4,12.82S409,275,408.89,279.7c0,2.52.93,4.93,1.58,7.37s1,5.16-.22,7.37c-1.39,2.55-4.49,3.83-5.78,6.43a7.61,7.61,0,0,0,.06,6.13,22.65,22.65,0,0,0,3.41,5.29c.65.83,1.61,1.76,2.61,1.4a2.58,2.58,0,0,0,1.23-1.42q8.14-16.41,15.37-33.24a24.38,24.38,0,0,0,2.28-7.5c.44-5.47-2.76-10.76-2.26-16.22"/><path class="cls-4" d="M417.52,203.18c-4.56,2.9-6.38,9-5.51,12.57.44,1.81,1.26,3.63.9,5.46-.31,1.58-1.44,2.84-2.29,4.21a12.68,12.68,0,0,0,15.85,18.32"/><path class="cls-4" d="M414.82,226.9c-11.08-24.38,15.29-36.64,29.68-32.57,13.53,3.82,19.29,10.55,21.52,19.59s2.12,18.86-1.43,27.47c-1.75,4.25-4.9,8.57-9.46,9.1"/><path class="cls-11" d="M427.71,277.46c-.2-11.65-.22-18.58-.23-18.51s-10-1.67-12.09-14.73c-1-6.5-.7-17.16-.15-25.87.49-7.84,5.68-17.45,13.49-16.63l24.4,6.17a4.6,4.6,0,0,1,4.11,4.66h0L455.65,263"/><path class="cls-4" d="M418.17,226.92a1.65,1.65,0,0,0,1.58,1.7,1.59,1.59,0,0,0,1.74-1.48,1.67,1.67,0,0,0-1.59-1.7A1.58,1.58,0,0,0,418.17,226.92Z"/><path class="cls-4" d="M435.25,226.92a1.67,1.67,0,0,0,1.59,1.7,1.59,1.59,0,0,0,1.73-1.48,1.67,1.67,0,0,0-1.58-1.7A1.59,1.59,0,0,0,435.25,226.92Z"/><path class="cls-4" d="M417.79,223.29c.2.22,1.5-.67,3.31-.61s3.09,1,3.29.8-.1-.5-.66-.94a4.63,4.63,0,0,0-2.63-.9,4.48,4.48,0,0,0-2.64.75C417.9,222.8,417.69,223.19,417.79,223.29Z"/><path class="cls-4" d="M434.91,223.72c.21.22,1.47-.73,3.28-.73s3.12.89,3.32.67-.12-.49-.7-.91a4.64,4.64,0,0,0-2.66-.81,4.49,4.49,0,0,0-2.61.86C435,223.23,434.81,223.62,434.91,223.72Z"/><path class="cls-4" d="M428.73,237.61a11.29,11.29,0,0,0-2.93-.53c-.46-.05-.9-.14-1-.46a2.34,2.34,0,0,1,.3-1.36c.44-1.11.89-2.28,1.37-3.51,1.89-5,3.26-9.09,3.05-9.17s-1.9,3.91-3.79,8.91c-.45,1.23-.89,2.4-1.3,3.52a2.73,2.73,0,0,0-.24,1.81,1.15,1.15,0,0,0,.76.67,2.92,2.92,0,0,0,.78.11A12,12,0,0,0,428.73,237.61Z"/><path class="cls-12" d="M427.48,259a33.31,33.31,0,0,0,17.5-4.67s-4.42,9.09-17.5,7.87Z"/><path class="cls-12" d="M429.49,242a3.25,3.25,0,0,1,2.91-1.2,2.94,2.94,0,0,1,2.05,1.09,1.88,1.88,0,0,1,.15,2.15,2.17,2.17,0,0,1-2.37.6,6.76,6.76,0,0,1-2.3-1.37,1.91,1.91,0,0,1-.52-.54.6.6,0,0,1,0-.67"/><path class="cls-4" d="M434,238.85c-.3,0-.3,1.94-2,3.33s-3.76,1.18-3.77,1.45.46.38,1.34.41a4.9,4.9,0,0,0,3.16-1.1,4.21,4.21,0,0,0,1.52-2.79C434.39,239.33,434.17,238.84,434,238.85Z"/><path class="cls-4" d="M434.46,221.08c.18.49,2,.25,4.1.51s3.82.83,4.1.39c.13-.21-.17-.67-.86-1.15a6.85,6.85,0,0,0-3-1.06,6.92,6.92,0,0,0-3.21.37C434.78,220.46,434.39,220.84,434.46,221.08Z"/><path class="cls-4" d="M418.21,218.68c.32.41,1.56,0,3.05,0s2.76.28,3.05-.15c.13-.21-.07-.62-.62-1a4.44,4.44,0,0,0-4.92.15C418.24,218.06,418.07,218.48,418.21,218.68Z"/><path class="cls-11" d="M455,229.67c.19-.09,7-3.1,7.07,4.72s-7.79,6.29-7.81,6.07S455,229.67,455,229.67Z"/><path class="cls-12" d="M456.62,237.47s.14.09.37.2a1.35,1.35,0,0,0,1,0c.82-.31,1.51-1.63,1.53-3a4.5,4.5,0,0,0-.4-1.95,1.59,1.59,0,0,0-1-1,.7.7,0,0,0-.8.39c-.1.22-.05.37-.09.38s-.17-.12-.11-.45a.88.88,0,0,1,.3-.49,1,1,0,0,1,.76-.21,1.93,1.93,0,0,1,1.43,1.2,4.67,4.67,0,0,1,.5,2.18c0,1.57-.83,3.06-2,3.39a1.47,1.47,0,0,1-1.25-.19C456.64,237.66,456.6,237.49,456.62,237.47Z"/><path class="cls-4" d="M426.13,197.78c-4.35,2.25-6.14,11.16-4.34,15.71s6.65,6.79,11.44,7.83a28.76,28.76,0,0,0,14.19-.14c.33,3.18,2.24,6.44,5.31,7.27,4.08,1.11,8.19-2.62,9.1-6.75s-.45-8.37-1.8-12.38"/><path class="cls-4" d="M460.65,226.17s-.2.23-.6.57a20.34,20.34,0,0,1-1.81,1.36,10.76,10.76,0,0,1-3,1.47,6.49,6.49,0,0,1-4.15-.06,6.4,6.4,0,0,1-3.14-2.71,8.64,8.64,0,0,1-1.13-3.2,10.65,10.65,0,0,1-.12-2.26,2.43,2.43,0,0,1,.1-.83c.08,0,0,1.19.33,3a9,9,0,0,0,1.17,3,6.17,6.17,0,0,0,2.95,2.51,6.29,6.29,0,0,0,3.88.08,11.61,11.61,0,0,0,3-1.34C459.67,226.83,460.6,226.11,460.65,226.17Z"/><path class="cls-4" d="M480,264.64a22.74,22.74,0,0,0-3.2-5.43c-.22-.28-.43-.57-.64-.86,3.48-2.56,4.9-6.72,4.25-12-.38-3.15-1.62-5.28-6.63-11.46a34.29,34.29,0,0,1-7.18-18.07l-3.46,10,1.4,11.49-3.33,6.84-2.05.85L456,240.73c-2.18,5.9-4.34,7.75-8.71,10.75s-8.82,4.88-12.43,11.25c-1,1.76-7.75,25.73-6.56,26.81,0,0,12.55-13.64,16.69-17.45,4.91-4.53,9.2-6.33,15.2-5.82,4.24.75,6.9.71,9.91,3.8,1.42,1.46,2.79,3.23,4.79,3.61A5,5,0,0,0,480,270.8,8.06,8.06,0,0,0,480,264.64Z"/><path class="cls-5" d="M477,259.36s-.14-.3-.5-.79a6.86,6.86,0,0,0-2-1.76,18.84,18.84,0,0,0-3.87-1.68c-.79-.28-1.62-.57-2.48-1a8.88,8.88,0,0,1-2.48-1.67,6.27,6.27,0,0,1-1.63-2.85,9.79,9.79,0,0,1-.25-3.56c.21-2.48,1.29-4.92,2.11-7.53a15.2,15.2,0,0,0,.79-4.11,8.58,8.58,0,0,0-.93-4.19,5.7,5.7,0,0,0-1.4-1.69,5.11,5.11,0,0,0-2-1c-.73-.19-1.51-.3-2.28-.47a5.62,5.62,0,0,1-2.23-.9,4.83,4.83,0,0,1-1.47-1.92c-.34-.72-.6-1.46-.91-2.15a6.72,6.72,0,0,0-3-3.24,11.51,11.51,0,0,0-4.14-1.31,28.33,28.33,0,0,0-4.2-.15c-1.38,0-2.73.06-4,0a16.34,16.34,0,0,1-3.76-.65,16.13,16.13,0,0,1-5.94-3.32A15.19,15.19,0,0,1,427,209a16,16,0,0,1-1.42-4,14,14,0,0,1-.31-2.67c0-.61,0-.93,0-.93a2.07,2.07,0,0,1,0,.23c0,.16,0,.4,0,.7a14.57,14.57,0,0,0,.35,2.65,16.6,16.6,0,0,0,1.45,4,15.15,15.15,0,0,0,3.44,4.37,15.66,15.66,0,0,0,9.59,3.88c1.29.07,2.63,0,4,0a27.74,27.74,0,0,1,4.25.14,11.92,11.92,0,0,1,4.23,1.33,7.48,7.48,0,0,1,1.82,1.41,7.08,7.08,0,0,1,1.28,1.95c.32.72.57,1.46.91,2.15A4.62,4.62,0,0,0,458,226a5.47,5.47,0,0,0,2.13.86c.76.16,1.53.27,2.29.46a5.54,5.54,0,0,1,2.12,1,5.8,5.8,0,0,1,1.46,1.78,8.74,8.74,0,0,1,1,4.33,15.74,15.74,0,0,1-.82,4.17c-.83,2.63-1.91,5-2.13,7.49a9.81,9.81,0,0,0,.23,3.48,6.19,6.19,0,0,0,1.57,2.76,8.27,8.27,0,0,0,2.42,1.65,26,26,0,0,0,2.45,1,18.5,18.5,0,0,1,3.88,1.74,6.69,6.69,0,0,1,2,1.82A4.22,4.22,0,0,1,477,259.36Z"/><path class="cls-5" d="M474,253.76a.59.59,0,0,1,.17-.12c.11-.09.29-.19.51-.36a7.61,7.61,0,0,0,1.63-1.72,9.2,9.2,0,0,0,1.44-3.45,11.22,11.22,0,0,0-.11-4.94,18.37,18.37,0,0,0-2.48-5.49,60.52,60.52,0,0,0-4.22-5.56,38.51,38.51,0,0,1-4.42-6.34c-1.29-2.39-1.79-5.18-2.86-7.78a10.8,10.8,0,0,0-2.21-3.49,12.39,12.39,0,0,0-3.28-2.32,29,29,0,0,0-7.36-2.15,51.9,51.9,0,0,1-6.79-1.66,29.38,29.38,0,0,1-5.58-2.47A19.6,19.6,0,0,1,432,200a14,14,0,0,1-1.17-2.09c-.12-.25-.19-.44-.25-.57a.82.82,0,0,1-.07-.2,1.55,1.55,0,0,1,.1.19l.26.56a17.17,17.17,0,0,0,1.22,2,19.75,19.75,0,0,0,6.48,5.83,28.44,28.44,0,0,0,5.55,2.42,52.87,52.87,0,0,0,6.77,1.64,29.3,29.3,0,0,1,7.43,2.15,12.3,12.3,0,0,1,3.35,2.37,11.05,11.05,0,0,1,2.28,3.57c1.08,2.65,1.57,5.42,2.84,7.77a39,39,0,0,0,4.38,6.31,58.33,58.33,0,0,1,4.21,5.58,18.4,18.4,0,0,1,2.48,5.57,11.39,11.39,0,0,1,.07,5,9.22,9.22,0,0,1-1.5,3.48,7.32,7.32,0,0,1-1.69,1.71A7.45,7.45,0,0,1,474,253.76Z"/><path class="cls-5" d="M436.16,268.66a2.64,2.64,0,0,1,0-.41,7.43,7.43,0,0,1,0-1.19,12.84,12.84,0,0,1,.94-4.25,16.39,16.39,0,0,1,3.53-5.42A25.11,25.11,0,0,1,447,252.7c2.48-1.33,5-2.21,7.16-3.36a15.79,15.79,0,0,0,2.84-1.9,9.47,9.47,0,0,0,1.92-2.26,7.24,7.24,0,0,0,1.17-4.08,7.4,7.4,0,0,0-.26-1.56,2.38,2.38,0,0,1,.15.39,4.76,4.76,0,0,1,.22,1.17,7.31,7.31,0,0,1-1.11,4.19,9.81,9.81,0,0,1-1.94,2.32,15.69,15.69,0,0,1-2.87,1.95c-2.15,1.18-4.69,2.06-7.15,3.39a25.3,25.3,0,0,0-6.33,4.62,16.79,16.79,0,0,0-3.53,5.31,13.78,13.78,0,0,0-1,4.19c0,.51,0,.91,0,1.18A1.61,1.61,0,0,1,436.16,268.66Z"/><path class="cls-5" d="M461.44,207s-.12-.43-.46-1.15a8.16,8.16,0,0,0-2.06-2.64,11.9,11.9,0,0,0-4.39-2.32,32.48,32.48,0,0,0-6.06-1,50,50,0,0,1-11-2.13c-1.38-.43-2.47-.84-3.21-1.15-.37-.14-.66-.27-.85-.36l-.29-.14a1.25,1.25,0,0,1,.31.09l.87.31c.75.28,1.85.66,3.22,1.07a54,54,0,0,0,11,2,30.42,30.42,0,0,1,6.11,1,11.8,11.8,0,0,1,4.44,2.42,7.87,7.87,0,0,1,2,2.73,7.07,7.07,0,0,1,.3.88A1.31,1.31,0,0,1,461.44,207Z"/><path class="cls-4" d="M447.32,195.26c-1.72-2.79-.85-6.64,1.37-9s5.49-3.59,8.72-4.11a13.31,13.31,0,0,1,6.81.37,6.66,6.66,0,0,1,4.38,4.92c.39,2.52-1.12,5-3,6.73a2.88,2.88,0,0,0-1.16,1.79c0,.78.61,1.39,1.11,2a6,6,0,0,1,1.59,4.16,4,4,0,0,1-2.42,3.57c-1.53.58-3.23,0-4.76-.64l-9.52-3.77"/><path class="cls-3" d="M463,204c-.11.13-2.83-2.35-6.66-4.72s-7.23-3.75-7.16-3.91a9,9,0,0,1,2.29.76,36.79,36.79,0,0,1,9.85,6.14A8.36,8.36,0,0,1,463,204Z"/><path class="cls-11" d="M437.85,314.69l-10.53,25.49-46-8.83L361,315.55l-5.67.78-9.28-.25-8.24,4.45-1.4.24,38.36,23.76,44.56,25.37A21.57,21.57,0,0,0,439.45,372h0a21.63,21.63,0,0,0,12.14-12.55l14.35-39Z"/><path class="cls-12" d="M338.32,320.26a12.4,12.4,0,0,1,2.5-.63c1.55-.33,3.71-.73,6.09-1.15l2.23-.38h.07l.06,0c1.79.57,3.34,1.08,4.43,1.46a7.43,7.43,0,0,1,1.71.71,7.18,7.18,0,0,1-1.81-.38c-1.12-.29-2.69-.74-4.49-1.27h.12L347,319c-2.39.42-4.55.76-6.13,1A11.38,11.38,0,0,1,338.32,320.26Z"/><path class="cls-12" d="M340.7,323.26a51.77,51.77,0,0,1,7.55-.39l1.8,0h.07l.05,0a35.88,35.88,0,0,1,5.13,2.63,34.09,34.09,0,0,1-5.35-2.14l.11,0-1.8,0A52.14,52.14,0,0,1,340.7,323.26Z"/><path class="cls-12" d="M437.85,314.69a2.26,2.26,0,0,1-.16.49l-.53,1.39c-.51,1.26-1.21,3-2.09,5.24-1.84,4.53-4.44,10.9-7.52,18.47l-.08.19-.2,0-22.09-4.22-23.89-4.62h-.06l0,0L366.52,320l-4.09-3.27-1.07-.87a2,2,0,0,1-.35-.32,1.82,1.82,0,0,1,.4.26l1.11.82c1,.75,2.41,1.82,4.18,3.16l14.79,11.36-.11,0,23.9,4.55,22.09,4.28-.28.15,7.71-18.39c.93-2.2,1.68-3.94,2.21-5.19l.6-1.36A3,3,0,0,1,437.85,314.69Z"/><path class="cls-12" d="M433.76,358.43a22.76,22.76,0,0,1-.58-2.83,45.92,45.92,0,0,0-1.84-6.7,46.83,46.83,0,0,0-2.87-6.33A19.45,19.45,0,0,1,427.1,340a11.7,11.7,0,0,1,1.71,2.35,34.29,34.29,0,0,1,3.05,6.34,33.93,33.93,0,0,1,1.71,6.82A11,11,0,0,1,433.76,358.43Z"/><polygon class="cls-3" points="372.84 426.19 378.26 395.05 349.66 394.81 354.17 426.19 372.84 426.19"/><path class="cls-3" d="M377.37,401.86s12.91-1.25,11.92,9.34-15.48,7.64-15.48,7.64v-4.06s11.45-.19,10.15-4.64-8.92-3.71-8.92-3.71Z"/><path class="cls-3" d="M345.91,368.35a11.92,11.92,0,0,1,1.3-4.49,12.5,12.5,0,0,1,2.36-3.1,16.19,16.19,0,0,1,3.14-2.33,2.78,2.78,0,0,1,.64-.25,2.29,2.29,0,0,0,.59-.35,7.2,7.2,0,0,0,1.82-2.72,6.35,6.35,0,0,1,1.47-2.57c.69-.55,1.91-.58,3.28.59a8.44,8.44,0,0,1,2.49,7,10.24,10.24,0,0,1-.59,2.73,12.28,12.28,0,0,1-1.37,2.68c-1,1.55-2,2.65-2.37,3.3,0,.07-.06.13-.08.19h.3l0,0,.08.18a7,7,0,0,0,.35.77c.18.32.4.67.64,1s.58.75,1,1.22c.8.94,1.84,2,2.87,3.32a20.63,20.63,0,0,1,2.82,4.44,12,12,0,0,1,1.15,5.34c-.05,3.28-1.66,6-3.39,7s-3,.52-3.42-.23a22.1,22.1,0,0,1-.8-2.72,10.28,10.28,0,0,0-1.63-2.55,4.69,4.69,0,0,0-1.24-1.05c-.55-.45-1.24-1-2.16-1.65s-2.06-1.54-3.39-2.74a21.49,21.49,0,0,1-2.11-2.19,18.54,18.54,0,0,1-2-2.93A14.45,14.45,0,0,1,345.91,368.35Z"/><g class="cls-7"><path class="cls-8" d="M345.91,368.35a11.92,11.92,0,0,1,1.3-4.49,12.5,12.5,0,0,1,2.36-3.1,16.19,16.19,0,0,1,3.14-2.33,2.78,2.78,0,0,1,.64-.25,2.29,2.29,0,0,0,.59-.35,7.2,7.2,0,0,0,1.82-2.72,6.35,6.35,0,0,1,1.47-2.57c.69-.55,1.91-.58,3.28.59a8.44,8.44,0,0,1,2.49,7,10.24,10.24,0,0,1-.59,2.73,12.28,12.28,0,0,1-1.37,2.68c-1,1.55-2,2.65-2.37,3.3,0,.07-.06.13-.08.19h.3l0,0,.08.18a7,7,0,0,0,.35.77c.18.32.4.67.64,1s.58.75,1,1.22c.8.94,1.84,2,2.87,3.32a20.63,20.63,0,0,1,2.82,4.44,12,12,0,0,1,1.15,5.34c-.05,3.28-1.66,6-3.39,7s-3,.52-3.42-.23a22.1,22.1,0,0,1-.8-2.72,10.28,10.28,0,0,0-1.63-2.55,4.69,4.69,0,0,0-1.24-1.05c-.55-.45-1.24-1-2.16-1.65s-2.06-1.54-3.39-2.74a21.49,21.49,0,0,1-2.11-2.19,18.54,18.54,0,0,1-2-2.93A14.45,14.45,0,0,1,345.91,368.35Z"/></g><g class="cls-15"><path d="M361.82,413.22a6.13,6.13,0,0,1,1-3.28c.54-.83,1.19-1.55,1.71-2.27a6.88,6.88,0,0,0,1.11-2.09,4.42,4.42,0,0,0,.17-.92l.15.07a3.39,3.39,0,0,1,1.4,2.2,6.25,6.25,0,0,1-.12,2.65,5.79,5.79,0,0,1-1.4,2.82,3.86,3.86,0,0,1-3.35,1A2.54,2.54,0,0,1,361.82,413.22Z"/><path d="M360.53,410.3a11,11,0,0,1,.68-3.47,3.83,3.83,0,0,1,2.54-2.36,3,3,0,0,1,1.84.09,3.85,3.85,0,0,1-.22.93,7.15,7.15,0,0,1-1.14,2c-.52.69-1.18,1.4-1.74,2.27a6.1,6.1,0,0,0-1,2.75,5.78,5.78,0,0,0,0,.58,2,2,0,0,1-.73-.73A3.58,3.58,0,0,1,360.53,410.3Z"/></g></g></svg>