<svg id="Calque_1" data-name="Calque 1" xmlns="http://www.w3.org/2000/svg" viewBox="0 0 500 500"><defs><style>.cls-1{fill:#1c1e2f;}.cls-2{fill:#e0e0e0;}.cls-3{fill:#ebebeb;}.cls-4{fill:#fafafa;}.cls-5{fill:#f5f5f5;}.cls-6{fill:none;}.cls-7{fill:#8862e0;}.cls-8{fill:#263238;}.cls-9{fill:#ffbe9d;}.cls-10{fill:#eb996e;}.cls-11{opacity:0.3;}.cls-11,.cls-14{isolation:isolate;}.cls-12,.cls-14{opacity:0.5;}.cls-13,.cls-14{fill:#fff;}.cls-15{fill:#455a64;}</style></defs><title>Standby</title><g id="Background"><rect class="cls-1" width="500" height="500"/></g><g id="Background_Complete" data-name="Background Complete"><polygon class="cls-2" points="152.76 74.1 161.67 96.91 156.13 96.89 151.69 82.87 152.76 74.1"/><polygon class="cls-3" points="122.31 53.03 119.25 96.73 150.89 97.39 154.45 53.03 122.31 53.03"/><polygon class="cls-4" points="125.47 56.55 122.92 92.92 146.45 94.03 149.73 56.33 125.47 56.55"/><polygon class="cls-2" points="130.64 61.69 128.73 87.26 141.7 87.26 143.99 61.69 130.64 61.69"/><polygon class="cls-5" points="91.1 97 91.1 75.12 107.13 75.12 107.13 96.99 91.1 97"/><path class="cls-2" d="M100.21,75.12s3.87-28.25,2.79-28.21-3.81,25.76-3.81,25.76-.11-21.3-1.13-21.19,0,22.55,0,22.55-1.74-18.21-2.68-17.77.4,18.86.4,18.86h4.43" transform="translate(0 0)"/><path class="cls-3" d="M97.3,75.12S98.64,61,99.08,62s0,8.38,0,8.38,3.71-18.2,4.68-17.58S100,72.56,100,72.56s3.62-10.92,4.41-9.77-3,11.4-3,11.4,3.88-7.25,4.15-6.28-1.86,7.21-1.86,7.21Z" transform="translate(0 0)"/><path class="cls-3" d="M95,75.21s-8.57-16.82-7.51-16.3S94.05,70.3,94.05,70.3s-3.63-10.49-2.83-10.81S96,71.27,96,71.27l.89,3.94Z" transform="translate(0 0)"/><polygon class="cls-2" points="98.52 75.16 98.92 97.04 91.31 97.04 91.16 75.09 98.52 75.16"/><polygon class="cls-3" points="91.12 77.06 98.5 77.18 107.13 77.06 107.4 74.96 90.91 74.96 91.12 77.06"/><rect class="cls-2" x="74.88" y="96.39" width="112.18" height="5.78"/><rect class="cls-4" x="344.69" y="102.6" width="111.16" height="194.48"/><path class="cls-3" d="M379.32,298.94s-12.18-87.49-18.56-97.11c0,0,36.42-27.34,37.53-101.45H343V298.94Z" transform="translate(0 0)"/><path class="cls-3" d="M421.21,298.55s12.17-87.49,18.55-97.11c0,0-36.41-27.34-37.53-101.44h55.26V298.55Z" transform="translate(0 0)"/><path class="cls-2" d="M344.69,102.6" transform="translate(0 0)"/><path class="cls-6" d="M344.69,102.6" transform="translate(0 0)"/><path class="cls-2" d="M344.69,102.6" transform="translate(0 0)"/><path class="cls-2" d="M344.69,102.6" transform="translate(0 0)"/><path class="cls-2" d="M344.69,102.6" transform="translate(0 0)"/><path class="cls-2" d="M344.69,102.6" transform="translate(0 0)"/><path class="cls-2" d="M344.69,102.6" transform="translate(0 0)"/><path class="cls-2" d="M344.69,102.6" transform="translate(0 0)"/><path class="cls-2" d="M344.69,102.6" transform="translate(0 0)"/><path class="cls-2" d="M344.69,102.6" transform="translate(0 0)"/><path class="cls-2" d="M344.69,102.6" transform="translate(0 0)"/><path class="cls-2" d="M344.69,102.6" transform="translate(0 0)"/><path class="cls-2" d="M344.69,102.6" transform="translate(0 0)"/><path class="cls-2" d="M344.69,102.6" transform="translate(0 0)"/><path class="cls-2" d="M344.69,102.6" transform="translate(0 0)"/><path class="cls-2" d="M344.69,102.6" transform="translate(0 0)"/><path class="cls-2" d="M344.69,102.6" transform="translate(0 0)"/><path class="cls-2" d="M344.69,102.6" transform="translate(0 0)"/><path class="cls-2" d="M344.69,102.6" transform="translate(0 0)"/><path class="cls-2" d="M344.69,102.6" transform="translate(0 0)"/><path class="cls-2" d="M344.69,102.6" transform="translate(0 0)"/><path class="cls-2" d="M344.69,102.6" transform="translate(0 0)"/><path class="cls-2" d="M344.69,102.6" transform="translate(0 0)"/><path class="cls-2" d="M344.69,102.6" transform="translate(0 0)"/><path class="cls-2" d="M344.69,102.6" transform="translate(0 0)"/><path class="cls-2" d="M344.69,102.6" transform="translate(0 0)"/><path class="cls-2" d="M344.69,102.6" transform="translate(0 0)"/><path class="cls-2" d="M344.69,102.6" transform="translate(0 0)"/><path class="cls-2" d="M344.69,102.6" transform="translate(0 0)"/><path class="cls-2" d="M344.69,102.6" transform="translate(0 0)"/><path class="cls-2" d="M344.69,102.6" transform="translate(0 0)"/><path class="cls-2" d="M344.69,102.6" transform="translate(0 0)"/><path class="cls-2" d="M344.69,102.6" transform="translate(0 0)"/><path class="cls-2" d="M344.69,102.6" transform="translate(0 0)"/><path class="cls-2" d="M344.69,102.6" transform="translate(0 0)"/><path class="cls-2" d="M344.69,102.6" transform="translate(0 0)"/><path class="cls-2" d="M344.69,102.6" transform="translate(0 0)"/><path class="cls-2" d="M344.69,102.6" transform="translate(0 0)"/><path class="cls-2" d="M344.69,102.6" transform="translate(0 0)"/><path class="cls-2" d="M458.78,95.68H334.39V304H463.93V95.68ZM367,203.91v49.54H344.69V203.91Zm-22.34-3.58V149.06H367v51.27Zm56.35,0V149.06h28v51.27Zm28,3.58v49.54H401V203.91Zm-61-3.58V149.06h29.43v51.27Zm29.43,3.58v49.54H368V203.91ZM368,148.17V103.09h29.43v45.08Zm29.43,106.16v43.25H368V254.33Zm3.58,0h28v43.25H401Zm0-106.16V103.09h28v45.08Zm29,55.74h23.64v49.54H430Zm0-3.58V149.06h23.64v51.27Zm23.64-52.16H430V103.09h23.64ZM367,103.09v45.08H344.69V103.09ZM344.69,254.33H367v43.25H344.69ZM430,297.58V254.33h23.64v43.25Z" transform="translate(0 0)"/><path class="cls-7" d="M403.26,348.22c-4.92.79-7.12,6.84-6.69,11.81s2.47,9.82,1.92,14.77c-.69,6.3-5.45,11.62-6,17.92-.65,7.44,4.61,14,6.18,21.34.76,3.55.65,7.3,2,10.69a13.37,13.37,0,0,0,25.81-4.61c.1-5.71-3.42-11.09-3-16.79.32-4.21,2.78-8.2,2.25-12.39-.62-5-5.24-8.52-6.87-13.27s-.07-10-.63-15c-1-8.95-6-15.2-15-14.48" transform="translate(0 0)"/><path class="cls-7" d="M378.12,391.59c-.83,8.3,2.84,18.07,7.11,25.24A39.49,39.49,0,0,0,403.81,433c.87.37,1.95.67,2.68.08a2.65,2.65,0,0,0,.67-2.13,40.74,40.74,0,0,0-29-39.31" transform="translate(0 0)"/><path class="cls-8" d="M414.28,450.31a2.82,2.82,0,0,1-.23-.46l-.6-1.36c-.5-1.19-1.24-2.9-2.19-5-1.9-4.19-4.71-9.89-8.24-15.95a176.93,176.93,0,0,0-9.86-15c-1.36-1.85-2.48-3.34-3.27-4.35-.36-.48-.65-.88-.89-1.19a2.49,2.49,0,0,1-.29-.43,4.09,4.09,0,0,1,.36.37l1,1.13c.83,1,2,2.44,3.39,4.28a150.18,150.18,0,0,1,18.13,31c.92,2.12,1.62,3.85,2.06,5.06.21.56.38,1,.51,1.39A1.46,1.46,0,0,1,414.28,450.31Z" transform="translate(0 0)"/><path class="cls-8" d="M408.94,371.18a5.29,5.29,0,0,1,.09.8c0,.56.09,1.32.16,2.29.13,2,.32,4.89.55,8.41.44,7.1,1.07,16.91,1.83,27.74s1.52,20.63,2.07,27.73c.27,3.51.49,6.37.64,8.4l.16,2.29a5.34,5.34,0,0,1,0,.8,4.19,4.19,0,0,1-.12-.79l-.24-2.28c-.19-2-.46-4.88-.79-8.39-.64-7.09-1.44-16.89-2.21-27.73s-1.33-20.65-1.7-27.76c-.16-3.52-.29-6.38-.39-8.42,0-1-.06-1.72-.08-2.29A5.35,5.35,0,0,1,408.94,371.18Z" transform="translate(0 0)"/><path class="cls-2" d="M401.3,438.47h20.79v15.26a10,10,0,0,1-10,10h0a10,10,0,0,1-10-9.44Z" transform="translate(0 0)"/></g><g id="Floor"><path class="cls-8" d="M457.78,463.28c0,.15-90.78.26-202.74.26s-202.76-.11-202.76-.26S143.05,463,255,463,457.78,463.14,457.78,463.28Z" transform="translate(0 0)"/></g><g id="Character"><path class="cls-9" d="M106.62,450.18s25.22-80.1,25.75-82.7c.49-2.35-9.15-60-10.36-74.91l34.07,1.27v.25l14.48.8-13,163.82H141.92l1.55-54.35c-9.67,26-23.52,52.42-23.52,52.42Z" transform="translate(0 0)"/><path class="cls-10" d="M142.83,423.84c0-.5.19-18.21.19-18.21.2,1.06,6-15.38,5.87-16.38C148.82,388.74,142.83,423.84,142.83,423.84Z" transform="translate(0 0)"/><path class="cls-10" d="M149.56,381.47a3.74,3.74,0,0,1,.1,1v2.72c0,.57-.09,1.2-.16,1.87s-.18,1.39-.33,2.14a39,39,0,0,1-1.28,4.77c-1.14,3.31-2.4,6.21-3.29,8.31l-1.09,2.48a3.4,3.4,0,0,1-.47.88,3.92,3.92,0,0,1,.28-1c.21-.6.53-1.47.94-2.54.8-2.13,2-5.05,3.13-8.34a40.43,40.43,0,0,0,1.31-4.7c.16-.73.27-1.44.37-2.09s.17-1.28.22-1.85c.11-1.13.16-2,.18-2.69A3.86,3.86,0,0,1,149.56,381.47Z" transform="translate(0 0)"/><path class="cls-7" d="M171.81,325.1c.6-22.84-2-46.5-4-53.67-.2-.69-.36-1.38-.53-2.07l-3.87-16.22s-1.62-1.32,2.69-7c2-2.66,1.63-12.82,1.63-12.82l-1.93,13.42L186.05,237s-8.5-24.22-11.24-27.76c-7.13-9.18-20-7.57-20-7.57l-16.86-.2a39.19,39.19,0,0,0-12.58,3.29l-.42.11V205c-4.84,2.36-9.15,6.33-10.39,12.8-2,10.56-1.39,15.37-1.39,15.37l13.74-.24L125.69,262c-1,3.58-3.94,2.72-8.23,19.25a133,133,0,0,0-3.45,19,95.58,95.58,0,0,0,.3,22.74L122,381.47h46.67Z" transform="translate(0 0)"/><polygon class="cls-7" points="133.52 228.09 136.03 238.75 112.41 238.75 113.96 220.87 133.52 228.09"/><path class="cls-8" d="M112.41,238.75a18.24,18.24,0,0,1,3.13-.31c1.93-.11,4.61-.21,7.57-.19s5.64.14,7.57.29a18.23,18.23,0,0,1,3.12.39,23.5,23.5,0,0,1-3.14,0c-1.93-.06-4.6-.13-7.55-.14h-7.56A19.35,19.35,0,0,1,112.41,238.75Z" transform="translate(0 0)"/><path class="cls-8" d="M163.42,253.91a3.72,3.72,0,0,1-.14-1,6.37,6.37,0,0,1,.09-1.23,7.29,7.29,0,0,1,.41-1.59,11,11,0,0,1,.83-1.81c.34-.62.74-1.26,1.16-1.93a20.66,20.66,0,0,0,2.33-4.5,10.49,10.49,0,0,0,.5-2.54,13.17,13.17,0,0,0-.08-2.43,23.55,23.55,0,0,0-.85-4.07c-.67-2.28-1.23-3.66-1.15-3.69a4.1,4.1,0,0,1,.48.93,28.23,28.23,0,0,1,1,2.65,22.51,22.51,0,0,1,1,4.12,14.14,14.14,0,0,1,.11,2.52,11.14,11.14,0,0,1-.51,2.68,20,20,0,0,1-2.43,4.59c-.43.66-.84,1.28-1.19,1.89a12.55,12.55,0,0,0-.86,1.72,7.31,7.31,0,0,0-.46,1.51,7.82,7.82,0,0,0-.18,1.18A5.6,5.6,0,0,1,163.42,253.91Z" transform="translate(0 0)"/><path class="cls-8" d="M122,381.47a1.89,1.89,0,0,1,.09-.34c.08-.24.19-.56.32-1l1.28-3.73c.55-1.62,1.29-3.58,2.13-5.86s1.81-4.87,2.9-7.73l7.74-20.06c1.45-3.77,3-7.74,4.55-11.84s3.17-8.38,4.79-12.76,3.17-8.67,4.59-12.83q1.08-3.12,2.11-6.13c.65-2,1.28-4,1.91-5.9,1.28-3.84,2.28-7.55,3.33-11,.49-1.73.91-3.41,1.34-5s.88-3.15,1.17-4.65l.94-4.26c.15-.67.29-1.32.43-1.95s.21-1.26.31-1.86c.2-1.2.38-2.31.55-3.34a26.73,26.73,0,0,0,.39-2.81c.16-1.68.29-3,.37-3.92,0-.43.08-.77.11-1a2,2,0,0,1,.06-.35,2,2,0,0,1,0,.35c0,.26,0,.59-.06,1-.07.93-.16,2.25-.27,3.94a21.15,21.15,0,0,1-.35,2.83c-.15,1-.33,2.15-.51,3.35-.1.6-.19,1.22-.29,1.86s-.27,1.3-.42,2c-.28,1.35-.58,2.78-.9,4.28s-.74,3-1.14,4.66-.83,3.31-1.31,5.05c-1,3.45-2,7.17-3.3,11-.61,1.93-1.25,3.9-1.89,5.92s-1.39,4.05-2.1,6.14c-1.42,4.17-3,8.45-4.58,12.84s-3.22,8.65-4.8,12.76-3.12,8.06-4.58,11.84l-7.85,20c-1.1,2.85-2.09,5.43-3,7.7s-1.63,4.22-2.21,5.83-1,2.82-1.37,3.69l-.37,1A2.33,2.33,0,0,1,122,381.47Z" transform="translate(0 0)"/><path class="cls-8" d="M134.54,220.79a14.45,14.45,0,0,1,.08,2.71c0,1.67-.08,4-.18,6.53s-.22,4.86-.33,6.53a14.39,14.39,0,0,1-.29,2.7,14.45,14.45,0,0,1-.08-2.71c0-1.68.08-4,.18-6.54s.22-4.86.33-6.53A13.51,13.51,0,0,1,134.54,220.79Z" transform="translate(0 0)"/><path class="cls-11" d="M155.84,237.08s-5.06,31.86-19.82,30.83c0,0-6.64-.08-8.77-4.5v-1.73Z" transform="translate(0 0)"/><path class="cls-8" d="M163.42,253.14a50.41,50.41,0,0,1-7.16.53,50.46,50.46,0,0,1-7.17,0,49,49,0,0,1,7.16-.53A50.46,50.46,0,0,1,163.42,253.14Z" transform="translate(0 0)"/><path class="cls-8" d="M158,253.36a.6.6,0,0,1-.51-.15,3.07,3.07,0,0,1-.79-1.18l-.89-1.84a7,7,0,0,1-.47-1.17,1.26,1.26,0,0,1,.56-1.41.9.9,0,0,1,.87,0,1.55,1.55,0,0,1,.54.51,6,6,0,0,1,.58,1.12,6.56,6.56,0,0,1,.46,2,3.53,3.53,0,0,1-.23,1.9c-.08,0,0-.73-.13-1.86a7.92,7.92,0,0,0-.54-1.9,6.49,6.49,0,0,0-.55-1c-.22-.31-.53-.52-.77-.39a.77.77,0,0,0-.29.85,5.77,5.77,0,0,0,.41,1.07l.78,1.89a4.08,4.08,0,0,0,.59,1.18C157.83,253.28,158,253.32,158,253.36Z" transform="translate(0 0)"/><path class="cls-8" d="M158,253.9a8,8,0,0,1,.64-2.09c.25-.63.56-1.37.94-2.18.19-.4.4-.82.63-1.25a2.45,2.45,0,0,1,.47-.67.85.85,0,0,1,1-.18,1,1,0,0,1,.51.83,2.47,2.47,0,0,1-.1.81,6,6,0,0,1-2.06,3.22,3.74,3.74,0,0,1-2,1,16.06,16.06,0,0,0,1.73-1.24,6.33,6.33,0,0,0,1.36-1.81,5.66,5.66,0,0,0,.45-1.25c.13-.45.13-.91-.16-1.06s-.57.22-.76.63l-.65,1.23c-.4.78-.74,1.5-1,2.1A12.39,12.39,0,0,1,158,253.9Z" transform="translate(0 0)"/><polygon class="cls-11" points="134.54 223.08 137.36 242.16 135.54 245.5 133.3 239.02 133.8 238.93 134.54 223.08"/><path class="cls-7" d="M157.89,459.52v-1.47l-16.06-.7-.05,6.07,1,.07c4.41.26,22.44,1,25.39.12C171.46,462.62,157.89,459.52,157.89,459.52Z" transform="translate(0 0)"/><g class="cls-12"><path class="cls-13" d="M147.59,463.31a5.59,5.59,0,0,0-2-3.41,5.4,5.4,0,0,0-3.73-1.17v4.46Z" transform="translate(0 0)"/></g><path class="cls-14" d="M164.52,461.27s4.76,1.39,4.16,2.17-18.84.72-26.89,0v-.36l21.28.26S163.59,461.31,164.52,461.27Z" transform="translate(0 0)"/><path class="cls-8" d="M141.57,463.05h.27l.79.06,2.91.13c2.45.1,5.84.19,9.59.2s7.13,0,9.59-.12l2.9-.11h0l-2.91.05c-2.45,0-5.84.08-9.58.06s-7.14-.08-9.59-.15l-2.9-.07h-1.07Z" transform="translate(0 0)"/><path class="cls-8" d="M163.1,463.57a6.82,6.82,0,0,1,.54-1.38,6.2,6.2,0,0,1,1-1.11,2.11,2.11,0,0,0-1.16,1A2.08,2.08,0,0,0,163.1,463.57Z" transform="translate(0 0)"/><path class="cls-8" d="M158.39,461.16a3.3,3.3,0,0,0,.51-.61,1.87,1.87,0,0,0,.34-.71,2,2,0,0,0-.51.61C158.49,460.82,158.34,461.13,158.39,461.16Z" transform="translate(0 0)"/><path class="cls-8" d="M157.1,460.47a2.12,2.12,0,0,0,.56-.37c.27-.25.47-.48.44-.52s-.29.13-.57.37S157.06,460.43,157.1,460.47Z" transform="translate(0 0)"/><path class="cls-8" d="M156.29,459c0,.06.37.1.83.11A2,2,0,0,0,158,459c0-.06-.38-.11-.84-.11A2,2,0,0,0,156.29,459Z" transform="translate(0 0)"/><path class="cls-8" d="M156,457.9a1.61,1.61,0,0,0,.93.27,1.56,1.56,0,0,0,1-.12,4.81,4.81,0,0,0-1-.07A4.18,4.18,0,0,0,156,457.9Z" transform="translate(0 0)"/><path class="cls-8" d="M158.94,459.77a2.8,2.8,0,0,0,1,0,7,7,0,0,0,1.1-.24,2.62,2.62,0,0,0,.62-.26.5.5,0,0,0,.26-.31.43.43,0,0,0-.15-.41,1.86,1.86,0,0,0-2.33.54,1.74,1.74,0,0,0-.34.68.66.66,0,0,0,0,.28,3.19,3.19,0,0,1,.47-.87,1.85,1.85,0,0,1,.88-.57,1.57,1.57,0,0,1,1.22.09c.17.12.1.31-.08.42a3.23,3.23,0,0,1-.58.24,6.59,6.59,0,0,1-1.06.27C159.33,459.74,158.94,459.74,158.94,459.77Z" transform="translate(0 0)"/><path class="cls-8" d="M159.2,459.82a1,1,0,0,0,.12-.71,1.66,1.66,0,0,0-.27-.75,1,1,0,0,0-.86-.53.41.41,0,0,0-.32.47,1,1,0,0,0,.18.46,2.92,2.92,0,0,0,.48.63,1.77,1.77,0,0,0,.59.42,6,6,0,0,1-.49-.52,3.72,3.72,0,0,1-.43-.61c-.14-.22-.23-.61,0-.66s.51.24.67.44a1.82,1.82,0,0,1,.29.67A3.2,3.2,0,0,1,159.2,459.82Z" transform="translate(0 0)"/><path class="cls-8" d="M141.91,458.68s.46,0,1.18.05a5.07,5.07,0,0,1,2.57,1.07,5,5,0,0,1,1.6,2.28,10.59,10.59,0,0,1,.3,1.14v-.32a4.25,4.25,0,0,0-.18-.86,4.84,4.84,0,0,0-1.61-2.39,5,5,0,0,0-2.68-1.06,4.22,4.22,0,0,0-.87,0A.85.85,0,0,0,141.91,458.68Z" transform="translate(0 0)"/><path class="cls-8" d="M149.6,461.78a8.77,8.77,0,0,0,2.34.22,9.14,9.14,0,0,0,2.33-.19c0-.06-1.05,0-2.33,0S149.61,461.72,149.6,461.78Z" transform="translate(0 0)"/><path class="cls-8" d="M146.47,461.75l.19.46c.1.24.17.45.22.45s.08-.25,0-.53S146.51,461.71,146.47,461.75Z" transform="translate(0 0)"/><path class="cls-8" d="M145.3,460.27a1,1,0,0,0,.23.38c.17.17.33.27.36.23s-.06-.2-.23-.37S145.34,460.24,145.3,460.27Z" transform="translate(0 0)"/><path class="cls-8" d="M143.61,459.6a1.07,1.07,0,0,1,.46.13c.24.13.4.21.44.18s-.09-.26-.38-.36S143.59,459.55,143.61,459.6Z" transform="translate(0 0)"/><path class="cls-8" d="M142.41,459.28c0,.05.07.13.2.18s.26.05.28,0-.07-.13-.21-.18S142.43,459.23,142.41,459.28Z" transform="translate(0 0)"/><path class="cls-7" d="M120.26,458.1l.61-1.34-14.37-7.22-2.5,5.53.87.46c3.92,2.05,20.06,10.11,23.11,10.51C131.37,466.49,120.26,458.1,120.26,458.1Z" transform="translate(0 0)"/><g class="cls-12"><path class="cls-13" d="M109.31,457.34a5.55,5.55,0,0,0-.46-3.94,5.4,5.4,0,0,0-2.92-2.6l-1.85,4.07Z" transform="translate(0 0)"/></g><path class="cls-14" d="M125.59,462.41s3.77,3.22,2.91,3.69-17.5-7.1-24.5-11l.17-.32,19.3,9S124.73,462.07,125.59,462.41Z" transform="translate(0 0)"/><path class="cls-8" d="M103.92,454.64l.24.14.7.37,2.59,1.31c2.2,1.1,5.26,2.57,8.67,4.12s6.53,2.88,8.8,3.82l2.69,1.09.74.28.26.09-.25-.13-.72-.31L125,464.27c-2.26-1-5.36-2.32-8.77-3.87s-6.48-3-8.69-4.06l-2.62-1.26-.71-.33Z" transform="translate(0 0)"/><path class="cls-8" d="M123.35,463.93a4.32,4.32,0,0,1,2.43-1.6,2.58,2.58,0,0,0-2.43,1.64Z" transform="translate(0 0)"/><path class="cls-8" d="M120,459.8c0,.05.35-.11.71-.35s.64-.46.61-.51a1.75,1.75,0,0,0-.71.35A3.16,3.16,0,0,0,120,459.8Z" transform="translate(0 0)"/><path class="cls-8" d="M119.15,458.65c0,.05.31,0,.66-.11s.63-.25.61-.3-.31,0-.67.11S119.13,458.6,119.15,458.65Z" transform="translate(0 0)"/><path class="cls-8" d="M119,456.94a2.22,2.22,0,0,0,.72.44c.42.19.77.31.8.26s-.3-.24-.72-.44S119.05,456.89,119,456.94Z" transform="translate(0 0)"/><path class="cls-8" d="M119.21,455.85a2.23,2.23,0,0,0,.73.63,1.69,1.69,0,0,0,.93.28,6,6,0,0,0-.83-.45A6.73,6.73,0,0,0,119.21,455.85Z" transform="translate(0 0)"/><path class="cls-8" d="M121.11,458.76a3.3,3.3,0,0,0,.94.42,6.82,6.82,0,0,0,1.09.23,2.58,2.58,0,0,0,.68,0,.54.54,0,0,0,.36-.18.39.39,0,0,0,0-.44,1.88,1.88,0,0,0-2.35-.46,1.84,1.84,0,0,0-.59.48c-.11.15-.14.24-.13.25a2.58,2.58,0,0,1,.78-.61,1.91,1.91,0,0,1,1-.16,1.65,1.65,0,0,1,1.08.59c.1.17,0,.32-.25.35a3.32,3.32,0,0,1-.63,0,9.55,9.55,0,0,1-1.07-.18C121.48,458.89,121.12,458.73,121.11,458.76Z" transform="translate(0 0)"/><path class="cls-8" d="M121.33,458.92a1.1,1.1,0,0,0,.4-.61,1.76,1.76,0,0,0,.06-.79,1,1,0,0,0-.56-.83c-.23-.07-.77.39-.81.56s.27.08.29.23a2.83,2.83,0,0,0,.19.76c.16.42.34.64.36.62s-.11-.25-.23-.66a3.12,3.12,0,0,1-.14-.74c0-.26,0-.65.29-.59s.37.43.43.68a1.5,1.5,0,0,1,0,.73A5.17,5.17,0,0,1,121.33,458.92Z" transform="translate(0 0)"/><path class="cls-8" d="M106,450.79a5.92,5.92,0,0,1,1.06.53,5.1,5.1,0,0,1,1.91,2,5.27,5.27,0,0,1,.53,2.73c0,.39-.11.78-.2,1.17a.84.84,0,0,0,.13-.29,3.7,3.7,0,0,0,.2-.86,4.86,4.86,0,0,0-2.5-4.9,3.57,3.57,0,0,0-.81-.34A1.12,1.12,0,0,0,106,450.79Z" transform="translate(0 0)"/><path class="cls-8" d="M111.77,456.77a13.32,13.32,0,0,0,4.25,1.94c0-.06-1-.42-2.13-1A11.53,11.53,0,0,0,111.77,456.77Z" transform="translate(0 0)"/><path class="cls-8" d="M108.93,455.46c-.05,0,0,.23,0,.5v.49a.7.7,0,0,0,.18-.49C109.11,455.66,109,455.44,108.93,455.46Z" transform="translate(0 0)"/><path class="cls-8" d="M108.46,453.63a1.84,1.84,0,0,0,.06.43c.06.22.19.39.24.37s0-.21-.06-.43S108.51,453.61,108.46,453.63Z" transform="translate(0 0)"/><path class="cls-8" d="M107.2,452.32c0,.06.18.14.36.31s.28.36.34.34,0-.27-.21-.48S107.21,452.27,107.2,452.32Z" transform="translate(0 0)"/><path class="cls-8" d="M106.24,451.54a.37.37,0,0,0,.11.25c.11.1.21.15.25.12s0-.15-.11-.26S106.27,451.5,106.24,451.54Z" transform="translate(0 0)"/><path class="cls-9" d="M166.75,208.92c.13-1.34.4-3.14.46-4,.18-2.53.62-3.09,1.46-2.72,1.37.61-.07,7.08.92,7.17.53,0,1.24-3.74,1.52-5.6s.51-4.7.64-5.66,1.94-1.3,1.88.58-.16,7.3.29,7.51c1.25.58,1.21-7.07,1.5-9.57a3.49,3.49,0,0,1,.35-1.22.94.94,0,0,1,1.3-.29.92.92,0,0,1,.43.69c.33,2.43-.16,9,0,10.09.05.33.87.49,1.08-.6.27-1.47.15-8.49,1.59-7.86s-.12,9,.53,9.83c1.21,1.58,1.34-7.45,2.84-7.06.76.2.75.48,0,5.3-.36,2.22-1.84,7-2.65,11.14,3.48,12.27,9.57,35.26,8.68,42.83-.51,4.34-10.58,7.34-14.9,4.1S167.35,246,167.35,246l5.19-3.07-5.07-27.8h0c-.22-.58-.31-2.1-.62-2.81A8.29,8.29,0,0,1,166.75,208.92Z" transform="translate(0 0)"/><path class="cls-10" d="M175.49,257.54a54.58,54.58,0,0,1-1.68-7.26,53.71,53.71,0,0,1-1.18-7.36,51.66,51.66,0,0,1,1.69,7.26A53.69,53.69,0,0,1,175.49,257.54Z" transform="translate(0 0)"/><path class="cls-8" d="M163.12,190.47a64.31,64.31,0,0,1,13.3-.54,4.86,4.86,0,0,0-2.69-7,4.36,4.36,0,0,1-1.58-.68,2.72,2.72,0,0,1-.35-2.65,4,4,0,0,0,.12-2.74c-.66-1.31-2.57-1.34-3.63-2.35-1.22-1.16-.93-3.12-1.16-4.79a7.11,7.11,0,0,0-6.08-5.9" transform="translate(0 0)"/><path class="cls-8" d="M147,156.21a12,12,0,0,0-13,5.72c-1.32,2.41-2,5.52-4.46,6.75-1.5.75-3.27.56-5,.72s-3.56.93-4,2.57.85,3.67-.26,4.95c-.71.82-2,.77-3,1.2-2,.86-2.61,3.5-2.38,5.69s1,4.42.43,6.57a28.85,28.85,0,0,0,6.82,1.49,9.66,9.66,0,0,0,6.59-1.85,2.47,2.47,0,0,0,1.27,2.44,6.24,6.24,0,0,0,2.81.69,28.17,28.17,0,0,0,9.49-1.06" transform="translate(0 0)"/><path class="cls-9" d="M157.94,202.81c-.06-4.17-.12-8.3-.12-8.3s6.74-.66,7.22-7.51.24-22.66.24-22.66l-12.2-6.29-13,10.53.53,34.64a8.67,8.67,0,0,0,8.94,8.39h.17A8.66,8.66,0,0,0,157.94,202.81Z" transform="translate(0 0)"/><path class="cls-8" d="M163.82,176a.86.86,0,1,1-.85-.89.86.86,0,0,1,.85.89Z" transform="translate(0 0)"/><path class="cls-8" d="M164.66,175.09c-.11.11-.74-.45-1.66-.51s-1.62.39-1.71.26.07-.26.37-.47a2.15,2.15,0,0,1,2.65.18C164.62,174.82,164.71,175,164.66,175.09Z" transform="translate(0 0)"/><path class="cls-8" d="M153.91,176a.87.87,0,0,1-.86.87.88.88,0,1,1,0-1.76.86.86,0,0,1,.86.86Z" transform="translate(0 0)"/><path class="cls-8" d="M154.45,175.09c-.11.11-.73-.45-1.65-.51s-1.62.39-1.71.26.07-.26.37-.47a2.18,2.18,0,0,1,1.38-.36,2.29,2.29,0,0,1,1.31.55C154.42,174.82,154.51,175,154.45,175.09Z" transform="translate(0 0)"/><path class="cls-8" d="M157.69,182.8a6.37,6.37,0,0,1,1.51-.18c.23,0,.46-.05.51-.22a1.38,1.38,0,0,0-.13-.75c-.19-.63-.4-1.28-.61-2a33.53,33.53,0,0,1-1.34-5.12,36.42,36.42,0,0,1,1.72,5c.2.69.4,1.35.58,2a1.5,1.5,0,0,1,.08,1,.57.57,0,0,1-.4.34,1.34,1.34,0,0,1-.4,0A5.53,5.53,0,0,1,157.69,182.8Z" transform="translate(0 0)"/><path class="cls-8" d="M129.86,174.85c.07-.49-.07.53,0-.24h0a26.19,26.19,0,0,1,.45-2.77c3.79-14.26,16.06-16.8,18.48-16.78,2.6,0,10-.19,14.17,5a13.6,13.6,0,0,1,2.36,13.61h0l-10.82-1.92c.8-2.69-.3-6.06-.93-7.64l-.06-.06c-2.06,10.25-13.1,12.55-13.1,12.55l-.13,15c-8-1.17-10.63-10.81-10.44-16.75Z" transform="translate(0 0)"/><path class="cls-9" d="M140.57,182.82c.06-1,.54-3.49.2-4.46s-1.43-1.19-2.61-1.18a2.68,2.68,0,0,0-2.57,2.56,3.47,3.47,0,0,0,1.44,3,3.9,3.9,0,0,0,3.43.19" transform="translate(0 0)"/><path class="cls-10" d="M139.29,181.47c0-.07-.34.07-.77-.07a1.39,1.39,0,0,1-.89-1.34,1.07,1.07,0,0,1,.24-.82.92.92,0,0,1,.68-.18c.46.06.79.19.81.11s-.2-.29-.74-.47a1.22,1.22,0,0,0-1.05.18,1.4,1.4,0,0,0-.46,1.2,2,2,0,0,0,.43,1.17,1.46,1.46,0,0,0,.9.5C139.05,181.83,139.34,181.51,139.29,181.47Z" transform="translate(0 0)"/><path class="cls-8" d="M157.63,184.78c0-.05.18-.31.64-.21a.81.81,0,0,1,.59.58.9.9,0,0,1-.32,1,.91.91,0,0,1-1,0,.78.78,0,0,1-.33-.76c.09-.48.45-.56.46-.49a1.47,1.47,0,0,0-.09.51.42.42,0,0,0,.22.34.47.47,0,0,0,.46,0,.49.49,0,0,0,.05-.68l-.13-.1C157.89,184.77,157.67,184.84,157.63,184.78Z" transform="translate(0 0)"/><path class="cls-8" d="M155,172.38c0,.15-1,0-2.22.28s-2,.83-2.13.71.69-.92,2-1.22A2.81,2.81,0,0,1,155,172.38Z" transform="translate(0 0)"/><path class="cls-15" d="M150.56,155.16a10.65,10.65,0,0,1-1.13,0,9,9,0,0,0-3,.58,10.71,10.71,0,0,0-3.74,2.4,13.19,13.19,0,0,0-2.93,4.6,25.64,25.64,0,0,0-1.33,9.91c0,1.22.08,2.24.11,3.08a4.35,4.35,0,0,1,0,1.14,4.69,4.69,0,0,1-.19-1.12c-.09-.73-.2-1.78-.28-3.08a32.1,32.1,0,0,1,0-4.6,19.35,19.35,0,0,1,1.21-5.52,13.23,13.23,0,0,1,3.07-4.75,10.73,10.73,0,0,1,4-2.41,8.27,8.27,0,0,1,3.08-.43,4.83,4.83,0,0,1,.84.11A1.4,1.4,0,0,1,150.56,155.16Z" transform="translate(0 0)"/><path class="cls-10" d="M158.56,194.36a4,4,0,0,1-1.61.3,11.42,11.42,0,0,1-3.94-.45,8.93,8.93,0,0,1-3.48-1.91c-.75-.7-1.07-1.26-1-1.29a13.48,13.48,0,0,1,1.26,1,10.6,10.6,0,0,0,3.39,1.7C156.05,194.58,158.55,194.18,158.56,194.36Z" transform="translate(0 0)"/><path class="cls-9" d="M125.39,238.58l7.91.44a40,40,0,0,0,2.24,6.48c6.36-11.05,11.3-25.86,12.53-31.81-.18-.6-.39-1.25-.66-2a8.59,8.59,0,0,1,.1-3.35c.22-1.32.59-3.11.7-3.93.34-2.52.74-2.91,1.62-2.63,1.19.39-.49,7.07.49,7.21.53.08,1.17-2.21,1.35-4.08s1-7.65,1.66-8c.91-.56,1.7.33,1.47,2.2s-.52,7.53.47,7.61,1.8-9.5,1.8-9.5-.16-2.08,1-2c2.07.09.45,10.18.28,11.13-.13.67,1,.79,1,.07s.6-9.57,2.71-9.5c1.62,0-1.26,8.31-.35,10.23s1.54-6.5,3.09-6.39c.57,0,1,.16-.06,4.92a108.94,108.94,0,0,1-3.69,11.17c-2.45,13.21-13.2,55.47-30.05,47.73-9.43-4.33-13.83-25.76-13.83-25.76Z" transform="translate(0 0)"/><path class="cls-10" d="M158.85,206.85a.41.41,0,0,1-.22,0,.47.47,0,0,1-.35-.52,22.57,22.57,0,0,1,.25-2.47A36.41,36.41,0,0,0,159,200q0-1.16-.06-2.46a7.38,7.38,0,0,0-.13-1.32c-.07-.41-.35-.89-.67-.83H158a.74.74,0,0,0-.68.62,3.65,3.65,0,0,0-.12,1.23h0a75.1,75.1,0,0,1-1,7.63c-.07.34-.15.68-.25,1-.06.17-.12.35-.19.52a1.56,1.56,0,0,1-.16.28.54.54,0,0,1-.38.24.72.72,0,0,1-.58-.48,3.43,3.43,0,0,1-.17-.57,10.56,10.56,0,0,1-.15-1.11,33.32,33.32,0,0,1,.07-4.58,11,11,0,0,0,.09-2.29A1.24,1.24,0,0,0,154,197a.53.53,0,0,0-.39-.05.62.62,0,0,0-.22.1c-.06,0,0,0-.1.13a11.35,11.35,0,0,0-.63,2.3c-.17.81-.31,1.63-.44,2.47s-.24,1.67-.34,2.52a19,19,0,0,1-.42,2.6,7.58,7.58,0,0,1-.42,1.3,2.27,2.27,0,0,1-.37.64.53.53,0,0,1-.55.2.55.55,0,0,1-.37-.41,4.5,4.5,0,0,1-.1-1.42c0-.46.06-.9.1-1.35.06-.77.13-1.53.16-2.28a6.73,6.73,0,0,0,0-1.1,1.6,1.6,0,0,0-.11-.48.42.42,0,0,0-.09-.14h-.12c-.61-.25-.81.59-1,1.27s-.23,1.44-.37,2.16c-.24,1.44-.55,2.87-.71,4.25a4.82,4.82,0,0,0,.08,2c.22.66.43,1.31.64,2v.12a108.24,108.24,0,0,1-4,13.17c-1.45,3.9-2.9,7.27-4.18,10s-2.41,4.89-3.2,6.34l-1,1.63a3.94,3.94,0,0,1-.35.55,3.19,3.19,0,0,1,.28-.59c.21-.41.51-1,.88-1.67.74-1.47,1.84-3.61,3.07-6.38s2.64-6.15,4.06-10a109.81,109.81,0,0,0,4-13.17v.12l-.64-1.94a5.34,5.34,0,0,1-.11-2.18c.16-1.43.46-2.82.7-4.27.14-.71.23-1.45.38-2.2a4.16,4.16,0,0,1,.37-1.13,1.12,1.12,0,0,1,.5-.51,1.11,1.11,0,0,1,.72,0l.16,0a.84.84,0,0,1,.21.11,1.09,1.09,0,0,1,.23.33,2.25,2.25,0,0,1,.15.62,11.61,11.61,0,0,1,0,1.18c0,.78-.1,1.54-.17,2.31,0,.45-.07.89-.09,1.33a4.6,4.6,0,0,0,.07,1.23c0,.1.07.08,0,.12h0l.06-.05a1.89,1.89,0,0,0,.28-.5A8,8,0,0,0,151,207a18.18,18.18,0,0,0,.42-2.54c.1-.86.22-1.7.35-2.54s.28-1.67.44-2.49A11,11,0,0,1,153,197a.79.79,0,0,1,.28-.32,2.07,2.07,0,0,1,.34-.15,1,1,0,0,1,.78.11,1.72,1.72,0,0,1,.67,1.19,3.75,3.75,0,0,1,0,1.25c0,.39-.09.78-.12,1.16a33.8,33.8,0,0,0-.08,4.5,9.3,9.3,0,0,0,.13,1.06,2.54,2.54,0,0,0,.14.47.59.59,0,0,0,.1.17c0,.08.06,0,.06.11-.05-.09,0,0,0-.12a1.14,1.14,0,0,0,.1-.19,3.8,3.8,0,0,0,.18-.47c.1-.32.18-.66.25-1a74.51,74.51,0,0,0,1-7.58h0a3.9,3.9,0,0,1,.15-1.36,1.28,1.28,0,0,1,.36-.6A.94.94,0,0,1,158,195h0a.82.82,0,0,1,.79.38,2.29,2.29,0,0,1,.28.71,10.71,10.71,0,0,1,.12,1.38v2.48a34.26,34.26,0,0,1-.5,3.91c-.16,1.06-.28,1.89-.33,2.44a.42.42,0,0,0,.27.48C158.77,206.83,158.85,206.83,158.85,206.85Z" transform="translate(0 0)"/></g><g id="Plant"><path class="cls-7" d="M343.78,350.9c-15.55-10.86-19.08-31-18.46-49.16.1-3-.23-6.22,1.21-8.87s4.79-4.47,7.5-3.2c2.25,1.06,3.23,3.67,4.49,5.84a17.79,17.79,0,0,0,7.09,6.78c1.93,1,4.32,1.61,6.22.56,2.61-1.44,2.92-5.05,2.9-8.06q-.06-8.42-.11-16.83a28.07,28.07,0,0,1,.91-8.94c.94-2.85,3-5.51,5.87-6.31s6.4.85,7,3.8a27.44,27.44,0,0,1,.08,3.74c.09,1.25.67,2.64,1.85,3s2.41-.5,3.31-1.38c3.11-3,5.21-7,7.18-10.84s3.89-7.88,6.7-11.2,6.72-5.94,11-6.18,8.91,2.41,10,6.64-1.39,8.55-4.08,12a67.57,67.57,0,0,1-14,13.33,5.49,5.49,0,0,0-2.34,2.52c-.65,2,1.25,4,3.23,4.66,2.24.74,4.68.51,7,.79s4.89,1.31,5.78,3.53c1.23,3.07-1.34,6.3-3.87,8.41a57.46,57.46,0,0,1-17,9.83c-2.22.81-4.55,1.52-6.33,3.08s-2.87,4.26-1.79,6.38,3.85,2.8,6.17,2.37,4.39-1.69,6.6-2.52c4.14-1.57,9.48-1.28,12.13,2.29a9.5,9.5,0,0,1,1,8.43,21.75,21.75,0,0,1-4.56,7.43,57.8,57.8,0,0,1-24.71,17.37c-9.59,3.33-18.48,4.23-28,.74" transform="translate(0 0)"/><path class="cls-8" d="M343.54,364.34a131.68,131.68,0,0,1,4.92-24.8,269.44,269.44,0,0,1,10.71-29l3.19-7.47c1.06-2.44,2.1-4.87,3.27-7.18a131.53,131.53,0,0,1,7.49-12.9c2.58-4,5.17-7.68,7.62-11.11s4.81-6.58,7.07-9.36a106.09,106.09,0,0,1,11.66-12.32c1.48-1.34,2.67-2.35,3.48-3l.93-.75a1.55,1.55,0,0,1,.33-.24l-.3.28-.89.8c-.79.7-1.95,1.72-3.41,3.09a112.55,112.55,0,0,0-11.5,12.41c-2.24,2.79-4.56,5.94-7,9.38s-5,7.14-7.57,11.12a135.66,135.66,0,0,0-7.42,12.86c-1.16,2.3-2.2,4.71-3.25,7.17l-3.2,7.46a276.89,276.89,0,0,0-10.72,29,134.22,134.22,0,0,0-5,24.7" transform="translate(0 0)"/><path class="cls-8" d="M365.79,295.82a5.53,5.53,0,0,1-.29-1.28c-.16-.83-.35-2-.56-3.54-.43-3-.87-7.16-1.35-11.74s-1-8.73-1.45-11.71c-.23-1.49-.43-2.7-.57-3.53a5.29,5.29,0,0,1-.17-1.31,6.11,6.11,0,0,1,.38,1.26c.21.82.47,2,.75,3.51.57,3,1.14,7.12,1.61,11.72s.87,8.62,1.19,11.75c.15,1.41.28,2.6.38,3.56A5.74,5.74,0,0,1,365.79,295.82Z" transform="translate(0 0)"/><path class="cls-8" d="M404.49,288.59a9,9,0,0,1-1.55.19c-1,.09-2.43.21-4.2.41-3.54.38-8.42,1.08-13.77,2.09s-10.14,2.15-13.59,3.06c-1.73.45-3.12.84-4.08,1.11a7.09,7.09,0,0,1-1.51.37,9.53,9.53,0,0,1,1.45-.58c.94-.33,2.32-.79,4-1.28,3.43-1,8.23-2.21,13.59-3.23a137.47,137.47,0,0,1,13.84-1.93c1.78-.16,3.22-.22,4.22-.24A8.56,8.56,0,0,1,404.49,288.59Z" transform="translate(0 0)"/><path class="cls-8" d="M348.94,338.82a3.59,3.59,0,0,1-.27-.47L348,337c-.57-1.22-1.35-3-2.28-5.22-1.87-4.43-4.25-10.63-6.79-17.52s-4.87-13.1-6.64-17.57c-.87-2.17-1.58-3.95-2.12-5.28l-.56-1.44a2.43,2.43,0,0,1-.17-.52,2.27,2.27,0,0,1,.27.48c.18.37.4.83.66,1.39.57,1.22,1.35,3,2.28,5.22,1.87,4.44,4.25,10.64,6.79,17.53s4.87,13.1,6.64,17.56l2.12,5.28c.22.58.41,1.06.56,1.45A2.58,2.58,0,0,1,348.94,338.82Z" transform="translate(0 0)"/><path class="cls-8" d="M400.36,322.25a2.28,2.28,0,0,1-.51.21l-1.5.5-5.5,1.79c-4.65,1.5-11.05,3.66-18.12,6.05s-13.49,4.5-18.17,5.91c-2.34.7-4.24,1.26-5.56,1.61l-1.52.4a1.66,1.66,0,0,1-.54.1,2.28,2.28,0,0,1,.51-.21l1.49-.5,5.51-1.78c4.64-1.51,11-3.67,18.11-6.06s13.49-4.49,18.17-5.9c2.34-.71,4.24-1.26,5.56-1.62l1.53-.4A2,2,0,0,1,400.36,322.25Z" transform="translate(0 0)"/></g><g id="Device"><path class="cls-8" d="M325.39,395.78l-107.88-.5a23.5,23.5,0,0,1-23.39-23.6l1.14-270.47a23.51,23.51,0,0,1,23.61-23.4l107.89.49a23.52,23.52,0,0,1,23.39,23.6L349,372.37a23.5,23.5,0,0,1-23.59,23.41Z" transform="translate(0 0)"/><path class="cls-4" d="M326.6,87.1,305.68,87a5.19,5.19,0,0,0-5.1,5.28h0v3.8a5.2,5.2,0,0,1-5.11,5.28l-40.77-.18a5.21,5.21,0,0,1-5-5.34V92.06a5.21,5.21,0,0,0-5.05-5.33h-7.36l-18.31-.08A16.45,16.45,0,0,0,202.4,103l-1.12,264a16.45,16.45,0,0,0,16.38,16.53l107.67.5a16.47,16.47,0,0,0,16.54-16.39l1.11-264A16.46,16.46,0,0,0,326.6,87.1Z" transform="translate(0 0)"/><rect class="cls-3" x="206.03" y="139.89" width="132.21" height="183.34" rx="5.78"/><path class="cls-7" d="M259.2,204.07l-26.89,61.6a11.63,11.63,0,0,0,11.83,16.22c18.68-1.9,46.68-4.78,66.08-6.79a12.35,12.35,0,0,0,8.51-19.83l-41.21-53.45a10.72,10.72,0,0,0-18.32,2.25Z" transform="translate(0 0)"/><g class="cls-12"><path class="cls-13" d="M260.59,208.21a4,4,0,0,1,.22-.6c.09-.19.19-.44.34-.72l.6-.92c.25-.34.58-.67.91-1.07a10.46,10.46,0,0,1,1.32-1.07,9.34,9.34,0,0,1,3.92-1.58,10.14,10.14,0,0,1,5.29.5,10.59,10.59,0,0,1,2.65,1.57l.62.53c.19.19.37.4.56.61.39.41.71.84,1.06,1.27,2.73,3.5,5.85,7.47,9.29,11.87l24.08,31c1.12,1.46,2.27,2.94,3.43,4.44A11.84,11.84,0,0,1,307,273l-.43.05-6.14.63-12.55,1.29-24.74,2.53-11.77,1.19-2.87.29-1.42.14-1.52.05a11.14,11.14,0,0,1-5.65-1.78,11.29,11.29,0,0,1-5.1-9.76,12.87,12.87,0,0,1,.13-1.38c.1-.45.18-.91.3-1.35l.46-1.29c.17-.41.35-.78.52-1.17.68-1.56,1.35-3.08,2-4.58,2.65-6,5.13-11.6,7.39-16.7,4.53-10.2,8.22-18.45,10.81-24.13l3-6.53a14.34,14.34,0,0,1,1.15-2.24,15.13,15.13,0,0,1-.86,2.36c-.64,1.54-1.56,3.78-2.74,6.65-2.42,5.76-6,14.07-10.36,24.33-2.2,5.13-4.62,10.75-7.22,16.77l-2,4.6c-.16.39-.35.78-.5,1.17l-.4,1.14c-.1.39-.17.79-.25,1.18a12,12,0,0,0-.11,1.22,9.9,9.9,0,0,0,4.51,8.5,9.55,9.55,0,0,0,4.92,1.52h1.32l1.43-.15,2.86-.3L263,275.93l24.74-2.56,12.55-1.29,6.14-.62a10.35,10.35,0,0,0,9.36-11.25c0-.15,0-.29-.05-.44a10.29,10.29,0,0,0-2-4.89l-3.4-4.45c-9-11.72-17-22.28-23.82-31.16-3.37-4.44-6.42-8.47-9.11-12-.33-.44-.66-.89-1-1.26-.17-.19-.33-.39-.5-.57l-.56-.5a9.23,9.23,0,0,0-2.41-1.49,9.52,9.52,0,0,0-4.92-.6,9,9,0,0,0-3.75,1.37,10.55,10.55,0,0,0-1.31,1,11.88,11.88,0,0,0-.93,1l-.65.85c-.17.25-.29.49-.4.66A2.28,2.28,0,0,1,260.59,208.21Z" transform="translate(0 0)"/></g><path class="cls-14" d="M264.89,222.29l4,24.55a4,4,0,0,0,4.13,3.37h0a4,4,0,0,0,3.87-4l.28-25.1a3.15,3.15,0,0,0-3.11-3.19,2.68,2.68,0,0,0-.4,0l-6,.68a3.17,3.17,0,0,0-2.8,3.49Z" transform="translate(0 0)"/><path class="cls-14" d="M280.45,262.51a6.06,6.06,0,1,1-4.57-7.25,6.07,6.07,0,0,1,4.57,7.25Z" transform="translate(0 0)"/><path class="cls-7" d="M230.59,189.5l-20,18.32a4.69,4.69,0,0,0,1.7,7.92l25.49,8.33a5,5,0,0,0,6.4-5.92l-6.44-26.48a4.33,4.33,0,0,0-7.15-2.17Z" transform="translate(0 0)"/><g class="cls-12"><path class="cls-13" d="M230.42,191.26a2.07,2.07,0,0,1,.76-.72,3.86,3.86,0,0,1,3-.46,4.29,4.29,0,0,1,2,1.07,4.81,4.81,0,0,1,1.24,2.37L239,199.4c1.11,4.38,2.44,9.58,3.9,15.35.18.72.37,1.46.55,2.2a5.23,5.23,0,0,1-6.75,6.18l-2.37-.77-4.85-1.57-9.54-3.14-4.53-1.5-1.1-.37-.55-.18-.62-.26a4.75,4.75,0,0,1-2-1.74,5,5,0,0,1-.3-4.85,5.63,5.63,0,0,1,.67-1l.42-.43.38-.35,1.51-1.35,5.51-4.91c3.37-3,6.12-5.38,8-7a18.46,18.46,0,0,1,3.09-2.41,18.17,18.17,0,0,1-2.68,2.86c-1.8,1.77-4.43,4.3-7.71,7.39l-5.38,5L213.15,208l-.37.35-.3.32a4.12,4.12,0,0,0-.47.75,3.56,3.56,0,0,0,.26,3.46,3.28,3.28,0,0,0,1.4,1.21l.44.18.55.17,1.11.36,4.54,1.46,9.55,3.11,4.84,1.59,2.37.78a3.73,3.73,0,0,0,4.73-2.33.88.88,0,0,0,0-.15,3.75,3.75,0,0,0,.06-1.91c-.17-.74-.35-1.47-.52-2.19l-3.57-15.43c-.49-2.19-.94-4.18-1.33-5.94a4,4,0,0,0-.93-2,3.68,3.68,0,0,0-1.6-1,3.78,3.78,0,0,0-2.67.15C230.74,191.07,230.47,191.31,230.42,191.26Z" transform="translate(0 0)"/></g><path class="cls-14" d="M229.7,197.16l-2.54,9.71a1.62,1.62,0,0,0,1,1.92h0a1.62,1.62,0,0,0,2.08-.83l4.22-9.21a1.27,1.27,0,0,0-.62-1.69l-.16-.06-2.33-.74a1.27,1.27,0,0,0-1.62.8Z" transform="translate(0 0)"/><path class="cls-14" d="M228.85,214.55a2.45,2.45,0,1,1-.5-3.43,2.45,2.45,0,0,1,.5,3.43Z" transform="translate(0 0)"/><path class="cls-7" d="M307.43,195.18l-4.54,20.71a3.67,3.67,0,0,0,2.78,4.37,3.71,3.71,0,0,0,1.87-.08c5.67-1.73,14.15-4.34,20-6.15a3.91,3.91,0,0,0,2.58-4.88,4,4,0,0,0-1.16-1.78l-16-14a3.38,3.38,0,0,0-4.77.31A3.3,3.3,0,0,0,307.43,195.18Z" transform="translate(0 0)"/><g class="cls-12"><path class="cls-13" d="M308.11,196.38a1.5,1.5,0,0,1,.13-.81,3,3,0,0,1,1.7-1.68,3.39,3.39,0,0,1,1.78-.22,3.8,3.8,0,0,1,1.91,1l3.65,3,9.43,8,1.34,1.16a4.14,4.14,0,0,1,1.21,1.79,4.27,4.27,0,0,1-2.64,5.43l-.15,0-1.86.57-3.81,1.18-7.5,2.28-3.57,1.08-.87.26-.43.13-.54.12a3.93,3.93,0,0,1-2.12-.24,4,4,0,0,1-2.46-3.09,4.18,4.18,0,0,1,0-1l.08-.48.09-.4.36-1.54c.47-2,.92-3.89,1.32-5.61.83-3.42,1.52-6.19,2-8.09a12.47,12.47,0,0,1,.95-2.92,11.21,11.21,0,0,1-.35,3.05c-.33,1.94-.86,4.75-1.55,8.2l-1.14,5.65c-.1.5-.21,1-.32,1.54l-.08.39v.32a2.36,2.36,0,0,0,0,.65,2.63,2.63,0,0,0,1.63,2,2.49,2.49,0,0,0,1.35.13l.35-.08.42-.13.87-.28,3.56-1.11,7.49-2.32,3.81-1.16,1.86-.57a2.77,2.77,0,0,0,1.26-.78,2.8,2.8,0,0,0,.58-2.74,2.75,2.75,0,0,0-.78-1.18l-1.31-1.17-9.2-8.26-3.5-3.22a2.75,2.75,0,0,0-2.91-.82,3,3,0,0,0-1.63,1.25C308.26,196.13,308.18,196.4,308.11,196.38Z" transform="translate(0 0)"/></g><path class="cls-14" d="M310.31,200.47l2.75,7.35a1.26,1.26,0,0,0,1.48.79h0a1.28,1.28,0,0,0,1-1.47L314,199.36a1,1,0,0,0-1.17-.8l-.11,0-1.82.58a1,1,0,0,0-.6,1.28Z" transform="translate(0 0)"/><path class="cls-14" d="M317.59,212a1.91,1.91,0,1,1-1.86-2,1.91,1.91,0,0,1,1.86,2Z" transform="translate(0 0)"/><path class="cls-8" d="M222.47,286.86a6.64,6.64,0,0,1-.7-.64,7.41,7.41,0,0,1-.74-.84,12.92,12.92,0,0,1-.91-1.19,21.55,21.55,0,0,1-1.92-3.37,22.29,22.29,0,0,1-2-9.23,22.72,22.72,0,0,1,.36-3.86c.09-.55.23-1,.34-1.46a10.16,10.16,0,0,1,.33-1.07,3.13,3.13,0,0,1,.38-.88c.09,0-.36,1.32-.68,3.47a22.85,22.85,0,0,0-.25,3.79,26.59,26.59,0,0,0,.53,4.62,26.28,26.28,0,0,0,1.42,4.43,22.54,22.54,0,0,0,1.79,3.36C221.61,285.81,222.55,286.8,222.47,286.86Z" transform="translate(0 0)"/><path class="cls-8" d="M231.18,288.12a3.6,3.6,0,0,1-.85-.54,9.45,9.45,0,0,1-.94-.73,14.56,14.56,0,0,1-1.15-1.07,20.47,20.47,0,0,1-2.6-3.19,24.21,24.21,0,0,1-2.28-4.48,23.56,23.56,0,0,1-1.22-4.88,21.71,21.71,0,0,1-.13-4.11,13.8,13.8,0,0,1,.18-1.56,9.28,9.28,0,0,1,.22-1.17,3.19,3.19,0,0,1,.29-1c.1,0-.25,1.42-.32,3.72a22.28,22.28,0,0,0,.24,4,25.32,25.32,0,0,0,1.23,4.77,24.77,24.77,0,0,0,2.2,4.4,22.33,22.33,0,0,0,2.45,3.19C230.07,287.21,231.25,288,231.18,288.12Z" transform="translate(0 0)"/><path class="cls-8" d="M324.19,277.48c-.08-.05.69-1.44,1.58-3.84a34.22,34.22,0,0,0,1.25-4.31,32.58,32.58,0,0,0,.52-10.92,34.79,34.79,0,0,0-.83-4.4c-.65-2.48-1.29-3.94-1.2-4a4.71,4.71,0,0,1,.51,1,22.82,22.82,0,0,1,1,2.88,29.38,29.38,0,0,1,1,4.44,34.57,34.57,0,0,1,.24,5.57,34,34,0,0,1-.78,5.51,28.76,28.76,0,0,1-1.37,4.34,24.89,24.89,0,0,1-1.31,2.76A4.66,4.66,0,0,1,324.19,277.48Z" transform="translate(0 0)"/><path class="cls-8" d="M332.22,275.42c-.08-.05.54-1.19,1.21-3.15a23.91,23.91,0,0,0,.9-3.52,26.31,26.31,0,0,0,.37-4.43,27.34,27.34,0,0,0-.43-4.42,23.8,23.8,0,0,0-1-3.51c-.69-2-1.33-3.09-1.25-3.13a2.93,2.93,0,0,1,.51.75,15.56,15.56,0,0,1,1.09,2.25,21.91,21.91,0,0,1,1.08,3.54,26.38,26.38,0,0,1,.49,4.52,24.43,24.43,0,0,1-.43,4.51,20,20,0,0,1-1,3.56,15.69,15.69,0,0,1-1,2.26A3.15,3.15,0,0,1,332.22,275.42Z" transform="translate(0 0)"/><rect class="cls-2" x="206.03" y="132.01" width="132.21" height="18.16"/><circle class="cls-5" cx="214.17" cy="141.26" r="2.49"/><circle class="cls-5" cx="224.38" cy="141.26" r="2.49"/><path class="cls-5" d="M237.08,141.26a2.49,2.49,0,1,1-2.49-2.49,2.48,2.48,0,0,1,2.49,2.49Z" transform="translate(0 0)"/></g><g id="Speech_Bubble" data-name="Speech Bubble"><path class="cls-4" d="M129.18,164.79l-15.68-3.86h.12A26,26,0,0,1,100.08,165a28.4,28.4,0,0,1-8.39-1.22,25.9,25.9,0,0,1-8.17-4.33A26.31,26.31,0,0,1,73.63,142a26,26,0,0,1,6.74-21,27,27,0,0,1,4.54-4c.85-.52,1.68-1.06,2.56-1.52l1.33-.65.66-.32.7-.25a26.58,26.58,0,0,1,11.27-1.72,26.13,26.13,0,0,1,23,17.57,27.14,27.14,0,0,1,1.44,8.47,25.88,25.88,0,0,1-3.75,13.58V152l7,12.72-7.29-12.58V152a25.89,25.89,0,0,0,3.62-13.43,26.85,26.85,0,0,0-1.5-8.28,25.82,25.82,0,0,0-33.7-15.51l-.67.25-.65.31-1.31.63c-.86.46-1.68,1-2.51,1.5a27.41,27.41,0,0,0-4.45,3.88,25.76,25.76,0,0,0,1.46,36.39c.5.45,1,.89,1.54,1.31a25.65,25.65,0,0,0,8,4.28,28.11,28.11,0,0,0,8.25,1.25,26,26,0,0,0,13.39-3.92h.11Z" transform="translate(0 0)"/><path class="cls-7" d="M97.51,127.12l.83,13.1a2.12,2.12,0,0,0,2,2h0a2.13,2.13,0,0,0,2.24-1.89L104,127.16a1.68,1.68,0,0,0-1.49-1.85H99.12A1.67,1.67,0,0,0,97.5,127,.34.34,0,0,1,97.51,127.12Z" transform="translate(0 0)"/><path class="cls-7" d="M103.8,149.57a3.19,3.19,0,1,1-2-4l0,0A3.18,3.18,0,0,1,103.8,149.57Z" transform="translate(0 0)"/></g></svg>